<svg width="823" height="663" viewBox="0 0 823 663" fill="none" xmlns="http://www.w3.org/2000/svg">
<g filter="url(#filter0_di_14_170)">
<circle cx="116.766" cy="516.29" r="46.9626" transform="rotate(-152.608 116.766 516.29)" fill="#CA32FF"/>
</g>
<g filter="url(#filter1_di_14_170)">
<circle cx="638.754" cy="163.856" r="106.704" transform="rotate(127.871 638.754 163.856)" fill="white"/>
</g>
<rect x="150.113" y="158.187" width="488.42" height="262.419" rx="17.3616" fill="url(#paint0_linear_14_170)" stroke="url(#paint1_linear_14_170)" stroke-width="1.43704"/>
<path d="M198.041 300.548L202.096 300.548L202.096 321.115L198.041 321.115L198.041 304.603L193.223 307.276L193.223 303.193L198.041 300.548ZM219.805 308.892C221.215 309.304 222.361 310.028 223.243 311.066C224.124 312.085 224.565 313.319 224.565 314.768C224.565 316.884 223.85 318.539 222.42 319.734C221.01 320.928 219.276 321.526 217.22 321.526C215.163 321.526 213.42 320.928 211.99 319.734C210.58 318.539 209.875 316.884 209.875 314.768L213.9 314.768C213.9 315.63 214.184 316.316 214.752 316.825C215.339 317.315 216.162 317.56 217.22 317.56C218.258 317.56 219.061 317.315 219.629 316.825C220.217 316.316 220.51 315.63 220.51 314.768C220.51 313.926 220.217 313.25 219.629 312.741C219.061 312.232 218.258 311.977 217.22 311.977L215.016 311.977L215.016 309.304L218.748 304.338L210.668 304.338L210.668 300.548L223.595 300.548L223.595 303.898L219.805 308.892ZM231.531 321.115L231.531 318.088L238.494 311.037C240.1 309.431 240.903 308.001 240.903 306.748C240.903 305.905 240.668 305.249 240.198 304.779C239.748 304.309 239.131 304.074 238.347 304.074C237.485 304.074 236.8 304.309 236.291 304.779C235.801 305.23 235.556 305.915 235.556 306.836L231.531 306.836C231.531 304.662 232.187 303.007 233.5 301.871C234.812 300.715 236.398 300.137 238.259 300.137C240.081 300.137 241.648 300.705 242.96 301.841C244.292 302.977 244.958 304.613 244.958 306.748C244.958 308.902 243.871 311.047 241.697 313.182L237.554 317.207L245.281 317.207L245.281 321.115L231.531 321.115ZM259.918 308.04C261.955 308.04 263.65 308.638 265.001 309.833C266.372 311.008 267.058 312.653 267.058 314.768C267.058 316.884 266.343 318.539 264.913 319.734C263.503 320.928 261.769 321.526 259.713 321.526C257.656 321.526 255.913 320.928 254.483 319.734C253.073 318.539 252.368 316.884 252.368 314.768L256.393 314.768C256.393 315.611 256.686 316.286 257.274 316.796C257.862 317.305 258.675 317.56 259.713 317.56C260.751 317.56 261.554 317.315 262.122 316.825C262.709 316.316 263.003 315.63 263.003 314.768C263.003 313.926 262.709 313.25 262.122 312.741C261.554 312.232 260.751 311.977 259.713 311.977L253.308 311.977L254.13 300.548L266.088 300.548L266.088 304.338L257.891 304.338L257.627 308.04L259.918 308.04ZM301.392 307.276C301.392 308.863 300.98 310.254 300.158 311.448L300.187 311.448L293.782 321.115L289.14 321.115L293.694 314.416C291.559 314.377 289.826 313.701 288.494 312.389C287.162 311.057 286.496 309.353 286.496 307.276C286.496 305.181 287.182 303.467 288.553 302.135C289.943 300.803 291.736 300.137 293.929 300.137C296.143 300.137 297.935 300.803 299.306 302.135C300.696 303.447 301.392 305.161 301.392 307.276ZM290.521 307.276C290.521 308.295 290.844 309.108 291.491 309.715C292.157 310.322 292.97 310.626 293.929 310.626C294.928 310.626 295.751 310.322 296.397 309.715C297.044 309.108 297.367 308.295 297.367 307.276C297.367 306.258 297.044 305.455 296.397 304.867C295.751 304.26 294.928 303.956 293.929 303.956C292.97 303.956 292.157 304.26 291.491 304.867C290.844 305.474 290.521 306.278 290.521 307.276ZM315.464 308.04C317.501 308.04 319.195 308.638 320.547 309.833C321.918 311.008 322.603 312.653 322.603 314.768C322.603 316.884 321.888 318.539 320.459 319.734C319.048 320.928 317.315 321.526 315.258 321.526C313.202 321.526 311.458 320.928 310.029 319.734C308.618 318.539 307.913 316.884 307.913 314.768L311.938 314.768C311.938 315.611 312.232 316.286 312.82 316.796C313.407 317.305 314.22 317.56 315.258 317.56C316.296 317.56 317.099 317.315 317.667 316.825C318.255 316.316 318.549 315.63 318.549 314.768C318.549 313.926 318.255 313.25 317.667 312.741C317.099 312.232 316.296 311.977 315.258 311.977L308.853 311.977L309.676 300.548L321.634 300.548L321.634 304.338L313.437 304.338L313.172 308.04L315.464 308.04ZM337.7 321.526C335.135 321.526 333.117 320.556 331.648 318.617C330.199 316.659 329.474 314.063 329.474 310.831C329.474 307.6 330.199 305.014 331.648 303.075C333.117 301.116 335.135 300.137 337.7 300.137C340.286 300.137 342.303 301.116 343.753 303.075C345.202 305.014 345.927 307.6 345.927 310.831C345.927 314.063 345.202 316.659 343.753 318.617C342.303 320.556 340.286 321.526 337.7 321.526ZM334.586 315.855C335.291 316.991 336.329 317.56 337.7 317.56C339.071 317.56 340.11 316.982 340.815 315.826C341.539 314.67 341.902 313.006 341.902 310.831C341.902 308.638 341.539 306.963 340.815 305.807C340.11 304.652 339.071 304.074 337.7 304.074C336.329 304.074 335.291 304.652 334.586 305.807C333.881 306.963 333.528 308.638 333.528 310.831C333.528 313.025 333.881 314.7 334.586 315.855ZM361.495 321.526C358.929 321.526 356.912 320.556 355.443 318.617C353.993 316.659 353.268 314.063 353.268 310.831C353.268 307.6 353.993 305.014 355.443 303.075C356.912 301.116 358.929 300.137 361.495 300.137C364.08 300.137 366.098 301.116 367.547 303.075C368.997 305.014 369.721 307.6 369.721 310.831C369.721 314.063 368.997 316.659 367.547 318.617C366.098 320.556 364.08 321.526 361.495 321.526ZM358.381 315.855C359.086 316.991 360.124 317.56 361.495 317.56C362.866 317.56 363.904 316.982 364.609 315.826C365.334 314.67 365.696 313.006 365.696 310.831C365.696 308.638 365.334 306.963 364.609 305.807C363.904 304.652 362.866 304.074 361.495 304.074C360.124 304.074 359.086 304.652 358.381 305.807C357.675 306.963 357.323 308.638 357.323 310.831C357.323 313.025 357.675 314.7 358.381 315.855ZM393.81 300.548L397.864 300.548L397.864 321.115L393.81 321.115L393.81 304.603L388.991 307.276L388.991 303.193L393.81 300.548ZM406.23 321.115L406.23 318.088L413.194 311.037C414.8 309.431 415.603 308.001 415.603 306.748C415.603 305.905 415.368 305.249 414.898 304.779C414.447 304.309 413.83 304.074 413.047 304.074C412.185 304.074 411.499 304.309 410.99 304.779C410.5 305.23 410.256 305.915 410.256 306.836L406.23 306.836C406.23 304.662 406.887 303.007 408.199 301.871C409.511 300.715 411.098 300.137 412.959 300.137C414.78 300.137 416.347 300.705 417.659 301.841C418.991 302.977 419.657 304.613 419.657 306.748C419.657 308.902 418.57 311.047 416.396 313.182L412.253 317.207L419.98 317.207L419.98 321.115L406.23 321.115ZM434.618 308.04C436.655 308.04 438.349 308.638 439.7 309.833C441.072 311.008 441.757 312.653 441.757 314.768C441.757 316.884 441.042 318.539 439.612 319.734C438.202 320.928 436.469 321.526 434.412 321.526C432.355 321.526 430.612 320.928 429.182 319.734C427.772 318.539 427.067 316.884 427.067 314.768L431.092 314.768C431.092 315.611 431.386 316.286 431.973 316.796C432.561 317.305 433.374 317.56 434.412 317.56C435.45 317.56 436.253 317.315 436.821 316.825C437.409 316.316 437.703 315.63 437.703 314.768C437.703 313.926 437.409 313.25 436.821 312.741C436.253 312.232 435.45 311.977 434.412 311.977L428.007 311.977L428.83 300.548L440.788 300.548L440.788 304.338L432.59 304.338L432.326 308.04L434.618 308.04ZM456.854 321.526C454.288 321.526 452.271 320.556 450.802 318.617C449.352 316.659 448.628 314.063 448.628 310.831C448.628 307.6 449.352 305.014 450.802 303.075C452.271 301.116 454.288 300.137 456.854 300.137C459.44 300.137 461.457 301.116 462.906 303.075C464.356 305.014 465.081 307.6 465.081 310.831C465.081 314.063 464.356 316.659 462.906 318.617C461.457 320.556 459.44 321.526 456.854 321.526ZM453.74 315.855C454.445 316.991 455.483 317.56 456.854 317.56C458.225 317.56 459.263 316.982 459.968 315.826C460.693 314.67 461.055 313.006 461.055 310.831C461.055 308.638 460.693 306.963 459.968 305.807C459.263 304.652 458.225 304.074 456.854 304.074C455.483 304.074 454.445 304.652 453.74 305.807C453.035 306.963 452.682 308.638 452.682 310.831C452.682 313.025 453.035 314.7 453.74 315.855ZM493.282 321.526C490.716 321.526 488.699 320.556 487.23 318.617C485.78 316.659 485.056 314.063 485.056 310.831C485.056 307.6 485.78 305.014 487.23 303.075C488.699 301.116 490.716 300.137 493.282 300.137C495.867 300.137 497.885 301.116 499.334 303.075C500.784 305.014 501.508 307.6 501.508 310.831C501.508 314.063 500.784 316.659 499.334 318.617C497.885 320.556 495.867 321.526 493.282 321.526ZM490.168 315.855C490.873 316.991 491.911 317.56 493.282 317.56C494.653 317.56 495.691 316.982 496.396 315.826C497.121 314.67 497.483 313.006 497.483 310.831C497.483 308.638 497.121 306.963 496.396 305.807C495.691 304.652 494.653 304.074 493.282 304.074C491.911 304.074 490.873 304.652 490.168 305.807C489.463 306.963 489.11 308.638 489.11 310.831C489.11 313.025 489.463 314.7 490.168 315.855ZM517.076 321.526C514.511 321.526 512.493 320.556 511.024 318.617C509.575 316.659 508.85 314.063 508.85 310.831C508.85 307.6 509.575 305.014 511.024 303.075C512.493 301.116 514.511 300.137 517.076 300.137C519.662 300.137 521.679 301.116 523.129 303.075C524.578 305.014 525.303 307.6 525.303 310.831C525.303 314.063 524.578 316.659 523.129 318.617C521.679 320.556 519.662 321.526 517.076 321.526ZM513.962 315.855C514.667 316.991 515.705 317.56 517.076 317.56C518.448 317.56 519.486 316.982 520.191 315.826C520.915 314.67 521.278 313.006 521.278 310.831C521.278 308.638 520.915 306.963 520.191 305.807C519.486 304.652 518.448 304.074 517.076 304.074C515.705 304.074 514.667 304.652 513.962 305.807C513.257 306.963 512.904 308.638 512.904 310.831C512.904 313.025 513.257 314.7 513.962 315.855ZM540.871 321.526C538.305 321.526 536.288 320.556 534.819 318.617C533.369 316.659 532.645 314.063 532.645 310.831C532.645 307.6 533.369 305.014 534.819 303.075C536.288 301.116 538.305 300.137 540.871 300.137C543.456 300.137 545.474 301.116 546.923 303.075C548.373 305.014 549.097 307.6 549.097 310.831C549.097 314.063 548.373 316.659 546.923 318.617C545.474 320.556 543.456 321.526 540.871 321.526ZM537.757 315.855C538.462 316.991 539.5 317.56 540.871 317.56C542.242 317.56 543.28 316.982 543.985 315.826C544.71 314.67 545.072 313.006 545.072 310.831C545.072 308.638 544.71 306.963 543.985 305.807C543.28 304.652 542.242 304.074 540.871 304.074C539.5 304.074 538.462 304.652 537.757 305.807C537.052 306.963 536.699 308.638 536.699 310.831C536.699 313.025 537.052 314.7 537.757 315.855ZM564.665 321.526C562.1 321.526 560.082 320.556 558.613 318.617C557.164 316.659 556.439 314.063 556.439 310.831C556.439 307.6 557.164 305.014 558.613 303.075C560.082 301.116 562.1 300.137 564.665 300.137C567.251 300.137 569.268 301.116 570.718 303.075C572.167 305.014 572.892 307.6 572.892 310.831C572.892 314.063 572.167 316.659 570.718 318.617C569.268 320.556 567.251 321.526 564.665 321.526ZM561.551 315.855C562.256 316.991 563.294 317.56 564.665 317.56C566.036 317.56 567.075 316.982 567.78 315.826C568.504 314.67 568.867 313.006 568.867 310.831C568.867 308.638 568.504 306.963 567.78 305.807C567.075 304.652 566.036 304.074 564.665 304.074C563.294 304.074 562.256 304.652 561.551 305.807C560.846 306.963 560.493 308.638 560.493 310.831C560.493 313.025 560.846 314.7 561.551 315.855Z" fill="white"/>
<path d="M324.641 358.637C323.161 358.637 321.997 358.077 321.149 356.959C320.313 355.829 319.895 354.332 319.895 352.467C319.895 350.602 320.313 349.111 321.149 347.992C321.997 346.862 323.161 346.297 324.641 346.297C326.133 346.297 327.297 346.862 328.133 347.992C328.969 349.111 329.387 350.602 329.387 352.467C329.387 354.332 328.969 355.829 328.133 356.959C327.297 358.077 326.133 358.637 324.641 358.637ZM322.844 355.365C323.251 356.021 323.85 356.349 324.641 356.349C325.432 356.349 326.031 356.015 326.438 355.349C326.856 354.682 327.065 353.721 327.065 352.467C327.065 351.201 326.856 350.235 326.438 349.569C326.031 348.902 325.432 348.568 324.641 348.568C323.85 348.568 323.251 348.902 322.844 349.569C322.438 350.235 322.234 351.201 322.234 352.467C322.234 353.733 322.438 354.699 322.844 355.365ZM336.487 350.399C337.719 350.422 338.719 350.817 339.487 351.586C340.267 352.343 340.657 353.315 340.657 354.501C340.657 355.71 340.256 356.705 339.454 357.484C338.651 358.253 337.617 358.637 336.352 358.637C335.086 358.637 334.052 358.253 333.25 357.484C332.459 356.716 332.063 355.721 332.063 354.501C332.063 353.574 332.295 352.778 332.758 352.111L336.453 346.534L339.131 346.534L336.487 350.399ZM334.945 355.908C335.318 356.258 335.787 356.433 336.352 356.433C336.917 356.433 337.386 356.258 337.759 355.908C338.143 355.558 338.335 355.089 338.335 354.501C338.335 353.925 338.143 353.461 337.759 353.111C337.386 352.761 336.917 352.586 336.352 352.586C335.787 352.586 335.318 352.761 334.945 353.111C334.572 353.45 334.385 353.913 334.385 354.501C334.385 355.089 334.572 355.558 334.945 355.908ZM344.263 360.095L343.297 360.095L350.077 344.839L351.043 344.839L344.263 360.095ZM353.864 358.4L353.864 356.654L357.881 352.586C358.808 351.659 359.271 350.834 359.271 350.111C359.271 349.625 359.135 349.246 358.864 348.975C358.604 348.704 358.248 348.568 357.796 348.568C357.299 348.568 356.904 348.704 356.61 348.975C356.327 349.235 356.186 349.631 356.186 350.162L353.864 350.162C353.864 348.907 354.243 347.953 355 347.297C355.757 346.631 356.672 346.297 357.746 346.297C358.796 346.297 359.7 346.625 360.458 347.28C361.226 347.936 361.61 348.879 361.61 350.111C361.61 351.354 360.983 352.591 359.729 353.823L357.339 356.145L361.797 356.145L361.797 358.4L353.864 358.4ZM368.885 350.857C370.06 350.857 371.038 351.201 371.818 351.891C372.609 352.569 373.004 353.518 373.004 354.738C373.004 355.959 372.592 356.914 371.767 357.603C370.953 358.292 369.953 358.637 368.767 358.637C367.58 358.637 366.574 358.292 365.749 357.603C364.936 356.914 364.529 355.959 364.529 354.738L366.851 354.738C366.851 355.224 367.021 355.614 367.36 355.908C367.699 356.202 368.168 356.349 368.767 356.349C369.365 356.349 369.829 356.207 370.156 355.925C370.495 355.631 370.665 355.236 370.665 354.738C370.665 354.252 370.495 353.863 370.156 353.569C369.829 353.275 369.365 353.128 368.767 353.128L365.071 353.128L365.546 346.534L372.445 346.534L372.445 348.721L367.716 348.721L367.563 350.857L368.885 350.857Z" fill="white"/>
<path d="M201.859 358.4L201.181 356.264L196.638 356.264L195.96 358.4L193.435 358.4L197.469 346.535L200.367 346.535L204.401 358.4L201.859 358.4ZM197.333 354.078L200.486 354.078L198.909 349.128L197.333 354.078ZM210.627 349.687C211.43 349.687 212.085 349.981 212.594 350.569C213.113 351.156 213.373 351.959 213.373 352.976L213.373 358.4L211.187 358.4L211.187 353.145C211.187 352.682 211.062 352.332 210.814 352.094C210.565 351.846 210.243 351.721 209.848 351.721C209.384 351.721 209.012 351.868 208.729 352.162C208.458 352.445 208.322 352.885 208.322 353.484L208.322 358.4L206.136 358.4L206.136 349.925L208.322 349.925L208.322 350.789C208.808 350.055 209.577 349.687 210.627 349.687ZM223.056 357.349C222.186 358.208 221.123 358.637 219.869 358.637C218.615 358.637 217.553 358.208 216.682 357.349C215.824 356.479 215.394 355.417 215.394 354.162C215.394 352.908 215.824 351.851 216.682 350.993C217.553 350.122 218.615 349.687 219.869 349.687C221.123 349.687 222.186 350.122 223.056 350.993C223.926 351.851 224.361 352.908 224.361 354.162C224.361 355.417 223.926 356.479 223.056 357.349ZM218.225 355.84C218.666 356.281 219.214 356.501 219.869 356.501C220.524 356.501 221.073 356.281 221.513 355.84C221.954 355.4 222.174 354.84 222.174 354.162C222.174 353.484 221.954 352.925 221.513 352.484C221.073 352.043 220.524 351.823 219.869 351.823C219.214 351.823 218.666 352.043 218.225 352.484C217.795 352.925 217.581 353.484 217.581 354.162C217.581 354.84 217.795 355.4 218.225 355.84ZM231.069 349.687C231.871 349.687 232.527 349.981 233.035 350.569C233.555 351.156 233.815 351.959 233.815 352.976L233.815 358.4L231.628 358.4L231.628 353.145C231.628 352.682 231.504 352.332 231.255 352.094C231.007 351.846 230.685 351.721 230.289 351.721C229.826 351.721 229.453 351.868 229.17 352.162C228.899 352.445 228.764 352.885 228.764 353.484L228.764 358.4L226.577 358.4L226.577 349.925L228.764 349.925L228.764 350.789C229.25 350.055 230.018 349.687 231.069 349.687ZM236.276 348.738L236.276 346.535L238.463 346.535L238.463 348.738L236.276 348.738ZM236.276 358.4L236.276 349.925L238.463 349.925L238.463 358.4L236.276 358.4ZM249.736 349.687C250.549 349.687 251.188 349.947 251.651 350.467C252.126 350.987 252.363 351.727 252.363 352.688L252.363 358.4L250.177 358.4L250.177 352.857C250.177 352.1 249.821 351.721 249.109 351.721C248.758 351.721 248.459 351.834 248.21 352.06C247.973 352.275 247.854 352.637 247.854 353.145L247.854 358.4L245.668 358.4L245.668 352.857C245.668 352.1 245.306 351.721 244.583 351.721C244.233 351.721 243.933 351.834 243.685 352.06C243.447 352.275 243.329 352.637 243.329 353.145L243.329 358.4L241.142 358.4L241.142 349.925L243.329 349.925L243.329 350.755C243.792 350.043 244.47 349.687 245.363 349.687C246.267 349.687 246.945 350.06 247.397 350.806C247.996 350.06 248.775 349.687 249.736 349.687ZM262.035 357.349C261.165 358.208 260.103 358.637 258.848 358.637C257.594 358.637 256.532 358.208 255.662 357.349C254.803 356.479 254.373 355.417 254.373 354.162C254.373 352.908 254.803 351.851 255.662 350.993C256.532 350.122 257.594 349.687 258.848 349.687C260.103 349.687 261.165 350.122 262.035 350.993C262.905 351.851 263.34 352.908 263.34 354.162C263.34 355.417 262.905 356.479 262.035 357.349ZM257.204 355.84C257.645 356.281 258.193 356.501 258.848 356.501C259.504 356.501 260.052 356.281 260.492 355.84C260.933 355.4 261.153 354.84 261.153 354.162C261.153 353.484 260.933 352.925 260.492 352.484C260.052 352.044 259.504 351.823 258.848 351.823C258.193 351.823 257.645 352.044 257.204 352.484C256.775 352.925 256.56 353.484 256.56 354.162C256.56 354.84 256.775 355.4 257.204 355.84ZM270.404 349.925L272.591 349.925L272.591 358.4L270.404 358.4L270.404 357.518C269.918 358.264 269.15 358.637 268.099 358.637C267.285 358.637 266.618 358.343 266.099 357.756C265.59 357.157 265.336 356.349 265.336 355.332L265.336 349.925L267.522 349.925L267.522 355.179C267.522 355.643 267.647 355.999 267.895 356.247C268.144 356.484 268.466 356.603 268.862 356.603C269.325 356.603 269.698 356.462 269.98 356.179C270.263 355.886 270.404 355.434 270.404 354.823L270.404 349.925ZM277.204 352.383C277.204 352.642 277.357 352.846 277.662 352.993C277.978 353.14 278.363 353.258 278.815 353.349C279.267 353.428 279.713 353.541 280.154 353.688C280.606 353.835 280.984 354.094 281.289 354.467C281.606 354.84 281.764 355.332 281.764 355.942C281.764 356.801 281.436 357.468 280.781 357.942C280.137 358.405 279.323 358.637 278.34 358.637C277.346 358.637 276.526 358.388 275.882 357.891C275.238 357.383 274.916 356.654 274.916 355.705L277.052 355.705C277.052 356.371 277.481 356.705 278.34 356.705C279.165 356.705 279.577 356.451 279.577 355.942C279.577 355.716 279.464 355.535 279.238 355.4C279.012 355.253 278.73 355.151 278.391 355.095C278.052 355.038 277.685 354.953 277.289 354.84C276.905 354.716 276.543 354.58 276.204 354.433C275.865 354.275 275.583 354.021 275.357 353.671C275.131 353.32 275.018 352.891 275.018 352.383C275.018 351.535 275.334 350.874 275.967 350.399C276.611 349.925 277.402 349.687 278.34 349.687C279.255 349.687 280.024 349.942 280.645 350.45C281.278 350.959 281.594 351.682 281.594 352.62L279.459 352.62C279.459 352.303 279.351 352.06 279.137 351.891C278.933 351.71 278.668 351.62 278.34 351.62C277.583 351.62 277.204 351.874 277.204 352.383Z" fill="white"/>
<path d="M276.603 223.567L275.756 219.329L266.286 219.329L264.78 223.536L257.19 223.551C260.803 214.862 264.424 206.176 268.053 197.494C268.671 196.021 269.767 195.271 271.383 195.279C272.618 195.29 274.633 195.29 277.432 195.282L283.3 223.555L276.603 223.567ZM268.418 213.525L274.52 213.525L272.241 202.902L268.418 213.525ZM219.493 195.275L227.124 195.282L215.327 223.57L207.601 223.563C205.659 216.091 203.74 208.613 201.846 201.128C201.469 199.637 200.723 198.593 199.288 198.1C198.011 197.659 195.883 196.981 192.9 196.058L192.9 195.286L205.093 195.286C207.202 195.286 208.434 196.307 208.829 198.401C209.228 200.499 210.23 205.84 211.843 214.425L219.493 195.275ZM237.61 195.282L231.576 223.563L224.314 223.555L230.341 195.275L237.61 195.282ZM252.338 194.759C254.512 194.759 257.25 195.437 258.824 196.058L257.551 201.923C256.127 201.351 253.785 200.578 251.815 200.605C248.952 200.654 247.182 201.855 247.182 203.008C247.182 204.884 250.255 205.829 253.419 207.878C257.031 210.214 257.506 212.312 257.461 214.591C257.412 219.321 253.419 223.988 244.997 223.988C241.155 223.932 239.769 223.608 236.635 222.497L237.961 216.376C241.151 217.713 242.503 218.139 245.23 218.139C247.728 218.139 249.871 217.129 249.89 215.37C249.905 214.12 249.137 213.498 246.334 211.954C243.532 210.406 239.599 208.262 239.652 203.961C239.716 198.454 244.933 194.759 252.342 194.759L252.338 194.759Z" fill="white"/>
<g style="mix-blend-mode:screen">
<path d="M532.466 238.056L532.466 201.42C532.466 197.756 535.464 194.759 539.127 194.759L589.085 194.759C592.749 194.759 595.747 197.756 595.747 201.42L595.747 238.056C595.747 241.72 592.749 244.717 589.085 244.717L539.127 244.717C535.464 244.717 532.466 241.72 532.466 238.056Z" fill="#FF9800"/>
<path d="M595.779 214.784L595.769 211.462L575.713 211.424C573.875 211.421 572.366 209.923 572.361 208.095C572.356 206.268 573.856 204.775 575.695 204.779L577.366 204.782L577.357 201.459L575.685 201.456C572.008 201.449 569.008 204.434 569.018 208.089C569.029 211.744 572.045 214.74 575.722 214.747L580.736 214.756L580.764 224.724L575.75 224.715C571.07 224.706 567.404 228.355 567.416 233.006C567.429 237.658 571.117 241.32 575.796 241.329L579.139 241.335L579.13 238.012L575.787 238.006C572.946 238.001 570.767 235.837 570.759 233.013C570.751 230.188 572.918 228.033 575.759 228.038L595.816 228.075L595.806 224.753L584.107 224.731L584.079 214.762L595.779 214.784Z" fill="#FFD54F"/>
<path d="M552.48 224.737L547.466 224.728L547.438 214.759L552.452 214.769C556.129 214.776 559.129 211.791 559.119 208.136C559.109 204.481 556.092 201.485 552.415 201.478L547.401 201.468L547.41 204.791L552.424 204.801C554.263 204.804 555.771 206.302 555.776 208.13C555.781 209.957 554.281 211.449 552.443 211.446L532.387 211.409L532.396 214.731L544.095 214.753L544.123 224.721L532.424 224.7L532.433 228.022L552.489 228.06C555.33 228.065 557.509 230.229 557.517 233.053C557.525 235.878 555.358 238.033 552.517 238.028L549.174 238.022L549.183 241.345L552.526 241.351C557.206 241.36 560.873 237.711 560.86 233.06C560.847 228.408 557.16 224.746 552.48 224.737Z" fill="#FFD54F"/>
</g>
<g filter="url(#filter2_b_14_170)">
<rect x="106.39" y="252.298" width="489.857" height="263.856" rx="18.0801" fill="#3C3C3C" fill-opacity="0.2"/>
<rect x="106.941" y="252.849" width="488.755" height="262.754" rx="17.5287" stroke="white" stroke-width="1.10268"/>
</g>
<path d="M155.037 395.378L159.091 395.378L159.091 415.944L155.037 415.944L155.037 399.432L150.219 402.106L150.219 398.022L155.037 395.378ZM179.357 405.249C181.257 406.385 182.207 408.04 182.207 410.214C182.207 412.114 181.541 413.613 180.209 414.71C178.897 415.806 177.104 416.355 174.832 416.355C172.541 416.355 170.739 415.806 169.426 414.71C168.114 413.613 167.458 412.114 167.458 410.214C167.458 408.021 168.408 406.366 170.308 405.249C168.858 404.211 168.134 402.791 168.134 400.989C168.134 399.089 168.77 397.61 170.043 396.553C171.336 395.495 172.932 394.966 174.832 394.966C176.732 394.966 178.319 395.495 179.592 396.553C180.865 397.61 181.502 399.089 181.502 400.989C181.502 402.811 180.787 404.231 179.357 405.249ZM176.742 399.432C176.252 399.001 175.616 398.786 174.832 398.786C174.049 398.786 173.412 399.001 172.923 399.432C172.433 399.863 172.188 400.45 172.188 401.195C172.188 401.939 172.433 402.536 172.923 402.987C173.412 403.418 174.049 403.633 174.832 403.633C175.616 403.633 176.252 403.418 176.742 402.987C177.232 402.536 177.477 401.939 177.477 401.195C177.477 400.45 177.232 399.863 176.742 399.432ZM172.394 411.801C173.021 412.291 173.833 412.536 174.832 412.536C175.831 412.536 176.634 412.291 177.242 411.801C177.868 411.292 178.182 410.587 178.182 409.686C178.182 408.804 177.868 408.119 177.242 407.629C176.634 407.12 175.831 406.865 174.832 406.865C173.833 406.865 173.021 407.12 172.394 407.629C171.787 408.119 171.483 408.804 171.483 409.686C171.483 410.587 171.787 411.292 172.394 411.801ZM189.445 415.944L189.445 412.917L196.408 405.866C198.014 404.26 198.817 402.83 198.817 401.577C198.817 400.734 198.582 400.078 198.112 399.608C197.661 399.138 197.045 398.903 196.261 398.903C195.399 398.903 194.714 399.138 194.204 399.608C193.715 400.059 193.47 400.744 193.47 401.665L189.445 401.665C189.445 399.491 190.101 397.836 191.413 396.7C192.726 395.544 194.312 394.966 196.173 394.966C197.994 394.966 199.561 395.534 200.874 396.67C202.206 397.806 202.872 399.442 202.872 401.577C202.872 403.731 201.785 405.876 199.61 408.011L195.468 412.036L203.195 412.036L203.195 415.944L189.445 415.944ZM214.571 395.378L218.625 395.378L218.625 415.944L214.571 415.944L214.571 399.432L209.752 402.106L209.752 398.022L214.571 395.378ZM248.968 403.721C250.378 404.133 251.524 404.857 252.406 405.896C253.287 406.914 253.728 408.148 253.728 409.597C253.728 411.713 253.013 413.368 251.583 414.563C250.173 415.758 248.439 416.355 246.383 416.355C244.326 416.355 242.583 415.758 241.153 414.563C239.743 413.368 239.038 411.713 239.038 409.597L243.063 409.597C243.063 410.459 243.347 411.145 243.915 411.654C244.502 412.144 245.325 412.389 246.383 412.389C247.421 412.389 248.224 412.144 248.792 411.654C249.379 411.145 249.673 410.459 249.673 409.597C249.673 408.755 249.379 408.08 248.792 407.57C248.224 407.061 247.421 406.806 246.383 406.806L244.179 406.806L244.179 404.133L247.91 399.168L239.831 399.168L239.831 395.378L252.758 395.378L252.758 398.727L248.968 403.721ZM275.009 402.106C275.009 403.692 274.598 405.083 273.775 406.278L273.804 406.278L267.4 415.944L262.757 415.944L267.311 409.245C265.176 409.206 263.443 408.53 262.111 407.218C260.779 405.886 260.113 404.182 260.113 402.106C260.113 400.01 260.799 398.296 262.17 396.964C263.561 395.632 265.353 394.966 267.546 394.966C269.76 394.966 271.552 395.632 272.923 396.964C274.314 398.276 275.009 399.99 275.009 402.106ZM264.138 402.106C264.138 403.124 264.462 403.937 265.108 404.544C265.774 405.151 266.587 405.455 267.546 405.455C268.545 405.455 269.368 405.151 270.014 404.544C270.661 403.937 270.984 403.124 270.984 402.106C270.984 401.087 270.661 400.284 270.014 399.696C269.368 399.089 268.545 398.786 267.546 398.786C266.587 398.786 265.774 399.089 265.108 399.696C264.462 400.304 264.138 401.107 264.138 402.106ZM290.22 416.355C287.654 416.355 285.637 415.385 284.168 413.446C282.718 411.488 281.994 408.892 281.994 405.661C281.994 402.429 282.718 399.843 284.168 397.904C285.637 395.946 287.654 394.966 290.22 394.966C292.806 394.966 294.823 395.946 296.272 397.904C297.722 399.843 298.447 402.429 298.447 405.661C298.447 408.892 297.722 411.488 296.272 413.446C294.823 415.385 292.806 416.355 290.22 416.355ZM287.106 410.685C287.811 411.821 288.849 412.389 290.22 412.389C291.591 412.389 292.629 411.811 293.334 410.655C294.059 409.5 294.421 407.835 294.421 405.661C294.421 403.467 294.059 401.792 293.334 400.637C292.629 399.481 291.591 398.903 290.22 398.903C288.849 398.903 287.811 399.481 287.106 400.637C286.401 401.792 286.048 403.467 286.048 405.661C286.048 407.854 286.401 409.529 287.106 410.685ZM313.163 402.869C315.2 402.869 316.894 403.467 318.245 404.662C319.616 405.837 320.302 407.482 320.302 409.597C320.302 411.713 319.587 413.368 318.157 414.563C316.747 415.758 315.014 416.355 312.957 416.355C310.9 416.355 309.157 415.758 307.727 414.563C306.317 413.368 305.612 411.713 305.612 409.597L309.637 409.597C309.637 410.44 309.931 411.115 310.518 411.625C311.106 412.134 311.919 412.389 312.957 412.389C313.995 412.389 314.798 412.144 315.366 411.654C315.954 411.145 316.247 410.459 316.247 409.597C316.247 408.755 315.954 408.08 315.366 407.57C314.798 407.061 313.995 406.806 312.957 406.806L306.552 406.806L307.375 395.378L319.332 395.378L319.332 399.168L311.135 399.168L310.871 402.869L313.163 402.869ZM340.034 415.944L340.034 412.917L346.997 405.866C348.603 404.26 349.406 402.83 349.406 401.577C349.406 400.734 349.171 400.078 348.701 399.608C348.251 399.138 347.634 398.903 346.85 398.903C345.989 398.903 345.303 399.138 344.794 399.608C344.304 400.059 344.059 400.744 344.059 401.665L340.034 401.665C340.034 399.491 340.69 397.836 342.003 396.7C343.315 395.544 344.901 394.966 346.762 394.966C348.584 394.966 350.151 395.534 351.463 396.67C352.795 397.806 353.461 399.442 353.461 401.577C353.461 403.731 352.374 405.876 350.2 408.011L346.057 412.036L353.784 412.036L353.784 415.944L340.034 415.944ZM360.401 395.378L373.68 395.378L373.68 398.815L366.717 415.944L362.428 415.944L369.215 399.256L360.401 399.256L360.401 395.378ZM390.023 403.721C391.433 404.133 392.579 404.857 393.46 405.896C394.342 406.914 394.782 408.148 394.782 409.597C394.782 411.713 394.067 413.368 392.637 414.563C391.227 415.758 389.494 416.355 387.437 416.355C385.381 416.355 383.637 415.758 382.208 414.563C380.797 413.368 380.092 411.713 380.092 409.597L384.117 409.597C384.117 410.459 384.401 411.145 384.969 411.654C385.557 412.144 386.379 412.389 387.437 412.389C388.475 412.389 389.278 412.144 389.846 411.654C390.434 411.145 390.728 410.459 390.728 409.597C390.728 408.755 390.434 408.08 389.846 407.57C389.278 407.061 388.475 406.806 387.437 406.806L385.234 406.806L385.234 404.133L388.965 399.168L380.885 399.168L380.885 395.378L393.813 395.378L393.813 398.727L390.023 403.721ZM401.749 415.944L401.749 412.917L408.712 405.866C410.318 404.26 411.121 402.83 411.121 401.577C411.121 400.734 410.886 400.078 410.416 399.608C409.965 399.138 409.348 398.903 408.565 398.903C407.703 398.903 407.017 399.138 406.508 399.608C406.018 400.059 405.774 400.744 405.774 401.665L401.749 401.665C401.749 399.491 402.405 397.836 403.717 396.7C405.029 395.544 406.616 394.966 408.477 394.966C410.298 394.966 411.865 395.534 413.177 396.67C414.509 397.806 415.175 399.442 415.175 401.577C415.175 403.731 414.088 405.876 411.914 408.011L407.771 412.036L415.498 412.036L415.498 415.944L401.749 415.944ZM443.621 416.355C441.055 416.355 439.038 415.385 437.569 413.446C436.119 411.488 435.395 408.892 435.395 405.661C435.395 402.429 436.119 399.843 437.569 397.904C439.038 395.946 441.055 394.966 443.621 394.966C446.207 394.966 448.224 395.946 449.673 397.904C451.123 399.843 451.848 402.429 451.848 405.661C451.848 408.892 451.123 411.488 449.673 413.446C448.224 415.385 446.207 416.355 443.621 416.355ZM440.507 410.685C441.212 411.821 442.25 412.389 443.621 412.389C444.992 412.389 446.03 411.811 446.735 410.655C447.46 409.5 447.823 407.835 447.823 405.661C447.823 403.467 447.46 401.792 446.735 400.637C446.03 399.481 444.992 398.903 443.621 398.903C442.25 398.903 441.212 399.481 440.507 400.637C439.802 401.792 439.449 403.467 439.449 405.661C439.449 407.854 439.802 409.529 440.507 410.685ZM467.416 416.355C464.85 416.355 462.832 415.385 461.363 413.446C459.914 411.488 459.189 408.892 459.189 405.661C459.189 402.429 459.914 399.843 461.363 397.904C462.832 395.946 464.85 394.966 467.416 394.966C470.001 394.966 472.019 395.946 473.468 397.904C474.917 399.843 475.642 402.429 475.642 405.661C475.642 408.892 474.917 411.488 473.468 413.446C472.019 415.385 470.001 416.355 467.416 416.355ZM464.301 410.685C465.006 411.821 466.045 412.389 467.416 412.389C468.787 412.389 469.825 411.811 470.53 410.655C471.255 409.5 471.617 407.835 471.617 405.661C471.617 403.467 471.255 401.792 470.53 400.637C469.825 399.481 468.787 398.903 467.416 398.903C466.045 398.903 465.006 399.481 464.301 400.637C463.596 401.792 463.244 403.467 463.244 405.661C463.244 407.854 463.596 409.529 464.301 410.685ZM491.21 416.355C488.644 416.355 486.627 415.385 485.158 413.446C483.708 411.488 482.984 408.892 482.984 405.661C482.984 402.429 483.708 399.843 485.158 397.904C486.627 395.946 488.644 394.966 491.21 394.966C493.796 394.966 495.813 395.946 497.262 397.904C498.712 399.843 499.437 402.429 499.437 405.661C499.437 408.892 498.712 411.488 497.262 413.446C495.813 415.385 493.796 416.355 491.21 416.355ZM488.096 410.685C488.801 411.821 489.839 412.389 491.21 412.389C492.581 412.389 493.619 411.811 494.324 410.655C495.049 409.5 495.411 407.835 495.411 405.661C495.411 403.467 495.049 401.792 494.324 400.637C493.619 399.481 492.581 398.903 491.21 398.903C489.839 398.903 488.801 399.481 488.096 400.637C487.391 401.792 487.038 403.467 487.038 405.661C487.038 407.854 487.391 409.529 488.096 410.685ZM515.005 416.355C512.439 416.355 510.421 415.385 508.952 413.446C507.503 411.488 506.778 408.892 506.778 405.661C506.778 402.429 507.503 399.843 508.952 397.904C510.421 395.946 512.439 394.966 515.005 394.966C517.59 394.966 519.607 395.946 521.057 397.904C522.506 399.843 523.231 402.429 523.231 405.661C523.231 408.892 522.506 411.488 521.057 413.446C519.607 415.385 517.59 416.355 515.005 416.355ZM511.89 410.685C512.595 411.821 513.634 412.389 515.005 412.389C516.376 412.389 517.414 411.811 518.119 410.655C518.844 409.5 519.206 407.835 519.206 405.661C519.206 403.467 518.844 401.792 518.119 400.637C517.414 399.481 516.376 398.903 515.005 398.903C513.634 398.903 512.595 399.481 511.89 400.637C511.185 401.792 510.833 403.467 510.833 405.661C510.833 407.854 511.185 409.529 511.89 410.685Z" fill="white"/>
<path d="M281.637 453.466C280.156 453.466 278.993 452.907 278.145 451.788C277.309 450.658 276.891 449.161 276.891 447.296C276.891 445.432 277.309 443.94 278.145 442.822C278.993 441.692 280.156 441.127 281.637 441.127C283.128 441.127 284.292 441.692 285.128 442.822C285.965 443.94 286.383 445.432 286.383 447.296C286.383 449.161 285.965 450.658 285.128 451.788C284.292 452.907 283.128 453.466 281.637 453.466ZM279.84 450.195C280.247 450.85 280.846 451.178 281.637 451.178C282.428 451.178 283.027 450.845 283.433 450.178C283.852 449.511 284.061 448.551 284.061 447.296C284.061 446.031 283.852 445.065 283.433 444.398C283.027 443.731 282.428 443.398 281.637 443.398C280.846 443.398 280.247 443.731 279.84 444.398C279.433 445.065 279.23 446.031 279.23 447.296C279.23 448.562 279.433 449.528 279.84 450.195ZM293.483 445.228C294.715 445.251 295.715 445.647 296.483 446.415C297.263 447.172 297.653 448.144 297.653 449.33C297.653 450.539 297.251 451.534 296.449 452.314C295.647 453.082 294.613 453.466 293.347 453.466C292.082 453.466 291.048 453.082 290.245 452.314C289.454 451.545 289.059 450.551 289.059 449.33C289.059 448.404 289.291 447.607 289.754 446.94L293.449 441.364L296.127 441.364L293.483 445.228ZM291.94 450.737C292.313 451.088 292.782 451.263 293.347 451.263C293.912 451.263 294.381 451.088 294.754 450.737C295.138 450.387 295.33 449.918 295.33 449.33C295.33 448.754 295.138 448.291 294.754 447.94C294.381 447.59 293.912 447.415 293.347 447.415C292.782 447.415 292.313 447.59 291.94 447.94C291.568 448.279 291.381 448.743 291.381 449.33C291.381 449.918 291.568 450.387 291.94 450.737ZM301.258 454.924L300.292 454.924L307.072 439.669L308.038 439.669L301.258 454.924ZM310.86 453.229L310.86 451.483L314.877 447.415C315.803 446.488 316.267 445.663 316.267 444.94C316.267 444.454 316.131 444.076 315.86 443.805C315.6 443.533 315.244 443.398 314.792 443.398C314.295 443.398 313.899 443.533 313.606 443.805C313.323 444.065 313.182 444.46 313.182 444.991L310.86 444.991C310.86 443.737 311.238 442.782 311.995 442.127C312.752 441.46 313.668 441.127 314.741 441.127C315.792 441.127 316.696 441.454 317.453 442.11C318.222 442.765 318.606 443.709 318.606 444.94C318.606 446.183 317.979 447.421 316.724 448.652L314.334 450.975L318.792 450.975L318.792 453.229L310.86 453.229ZM325.881 445.686C327.056 445.686 328.033 446.031 328.813 446.72C329.604 447.398 330 448.347 330 449.568C330 450.788 329.587 451.743 328.762 452.432C327.949 453.122 326.949 453.466 325.762 453.466C324.576 453.466 323.57 453.122 322.745 452.432C321.931 451.743 321.525 450.788 321.525 449.568L323.847 449.568C323.847 450.054 324.016 450.443 324.355 450.737C324.694 451.031 325.163 451.178 325.762 451.178C326.361 451.178 326.824 451.037 327.152 450.754C327.491 450.46 327.661 450.065 327.661 449.568C327.661 449.082 327.491 448.692 327.152 448.398C326.824 448.104 326.361 447.957 325.762 447.957L322.067 447.957L322.542 441.364L329.44 441.364L329.44 443.55L324.711 443.55L324.559 445.686L325.881 445.686Z" fill="white"/>
<path d="M158.854 453.229L158.176 451.093L153.634 451.093L152.956 453.229L150.43 453.229L154.464 441.364L157.363 441.364L161.397 453.229L158.854 453.229ZM154.329 448.907L157.481 448.907L155.905 443.957L154.329 448.907ZM167.623 444.517C168.425 444.517 169.081 444.81 169.589 445.398C170.109 445.986 170.369 446.788 170.369 447.805L170.369 453.229L168.182 453.229L168.182 447.974C168.182 447.511 168.058 447.161 167.809 446.923C167.561 446.675 167.239 446.551 166.843 446.551C166.38 446.551 166.007 446.697 165.725 446.991C165.453 447.274 165.318 447.714 165.318 448.313L165.318 453.229L163.131 453.229L163.131 444.754L165.318 444.754L165.318 445.618C165.804 444.884 166.572 444.517 167.623 444.517ZM180.051 452.178C179.181 453.037 178.119 453.466 176.865 453.466C175.61 453.466 174.548 453.037 173.678 452.178C172.819 451.308 172.39 450.246 172.39 448.991C172.39 447.737 172.819 446.681 173.678 445.822C174.548 444.952 175.61 444.517 176.865 444.517C178.119 444.517 179.181 444.952 180.051 445.822C180.921 446.681 181.356 447.737 181.356 448.991C181.356 450.246 180.921 451.308 180.051 452.178ZM175.221 450.669C175.661 451.11 176.209 451.33 176.865 451.33C177.52 451.33 178.068 451.11 178.509 450.669C178.95 450.229 179.17 449.669 179.17 448.991C179.17 448.313 178.95 447.754 178.509 447.313C178.068 446.873 177.52 446.652 176.865 446.652C176.209 446.652 175.661 446.873 175.221 447.313C174.791 447.754 174.576 448.313 174.576 448.991C174.576 449.669 174.791 450.229 175.221 450.669ZM188.064 444.517C188.867 444.517 189.522 444.81 190.031 445.398C190.55 445.986 190.81 446.788 190.81 447.805L190.81 453.229L188.624 453.229L188.624 447.974C188.624 447.511 188.499 447.161 188.251 446.923C188.002 446.675 187.68 446.551 187.285 446.551C186.821 446.551 186.449 446.697 186.166 446.991C185.895 447.274 185.759 447.714 185.759 448.313L185.759 453.229L183.573 453.229L183.573 444.754L185.759 444.754L185.759 445.618C186.245 444.884 187.014 444.517 188.064 444.517ZM193.272 443.567L193.272 441.364L195.459 441.364L195.459 443.567L193.272 443.567ZM193.272 453.229L193.272 444.754L195.459 444.754L195.459 453.229L193.272 453.229ZM206.731 444.517C207.545 444.517 208.184 444.776 208.647 445.296C209.121 445.816 209.359 446.556 209.359 447.517L209.359 453.229L207.172 453.229L207.172 447.686C207.172 446.929 206.816 446.551 206.104 446.551C205.754 446.551 205.455 446.664 205.206 446.89C204.969 447.104 204.85 447.466 204.85 447.974L204.85 453.229L202.663 453.229L202.663 447.686C202.663 446.929 202.302 446.551 201.579 446.551C201.228 446.551 200.929 446.664 200.68 446.89C200.443 447.104 200.324 447.466 200.324 447.974L200.324 453.229L198.138 453.229L198.138 444.754L200.324 444.754L200.324 445.584C200.788 444.872 201.466 444.517 202.358 444.517C203.262 444.517 203.94 444.889 204.392 445.635C204.991 444.889 205.771 444.517 206.731 444.517ZM219.031 452.178C218.16 453.037 217.098 453.466 215.844 453.466C214.59 453.466 213.527 453.037 212.657 452.178C211.798 451.308 211.369 450.246 211.369 448.991C211.369 447.737 211.798 446.681 212.657 445.822C213.527 444.952 214.59 444.517 215.844 444.517C217.098 444.517 218.16 444.952 219.031 445.822C219.901 446.681 220.336 447.737 220.336 448.991C220.336 450.246 219.901 451.308 219.031 452.178ZM214.2 450.669C214.64 451.11 215.188 451.33 215.844 451.33C216.499 451.33 217.047 451.11 217.488 450.669C217.929 450.229 218.149 449.669 218.149 448.991C218.149 448.313 217.929 447.754 217.488 447.313C217.047 446.873 216.499 446.652 215.844 446.652C215.188 446.652 214.64 446.873 214.2 447.313C213.77 447.754 213.556 448.313 213.556 448.991C213.556 449.669 213.77 450.229 214.2 450.669ZM227.4 444.754L229.586 444.754L229.586 453.229L227.4 453.229L227.4 452.347C226.914 453.093 226.145 453.466 225.094 453.466C224.281 453.466 223.614 453.172 223.094 452.585C222.586 451.986 222.332 451.178 222.332 450.161L222.332 444.754L224.518 444.754L224.518 450.008C224.518 450.472 224.642 450.828 224.891 451.076C225.14 451.314 225.462 451.432 225.857 451.432C226.32 451.432 226.693 451.291 226.976 451.008C227.258 450.715 227.4 450.263 227.4 449.652L227.4 444.754ZM234.2 447.212C234.2 447.472 234.353 447.675 234.658 447.822C234.974 447.969 235.358 448.087 235.81 448.178C236.262 448.257 236.709 448.37 237.149 448.517C237.601 448.664 237.98 448.924 238.285 449.296C238.601 449.669 238.76 450.161 238.76 450.771C238.76 451.63 238.432 452.297 237.777 452.771C237.132 453.235 236.319 453.466 235.336 453.466C234.341 453.466 233.522 453.218 232.878 452.72C232.234 452.212 231.912 451.483 231.912 450.534L234.047 450.534C234.047 451.201 234.477 451.534 235.336 451.534C236.161 451.534 236.573 451.28 236.573 450.771C236.573 450.545 236.46 450.364 236.234 450.229C236.008 450.082 235.726 449.98 235.387 449.924C235.048 449.867 234.68 449.782 234.285 449.669C233.901 449.545 233.539 449.409 233.2 449.263C232.861 449.104 232.578 448.85 232.352 448.5C232.126 448.15 232.013 447.72 232.013 447.212C232.013 446.364 232.33 445.703 232.963 445.228C233.607 444.754 234.398 444.517 235.336 444.517C236.251 444.517 237.019 444.771 237.641 445.279C238.274 445.788 238.59 446.511 238.59 447.449L236.454 447.449C236.454 447.133 236.347 446.89 236.132 446.72C235.929 446.539 235.663 446.449 235.336 446.449C234.579 446.449 234.2 446.703 234.2 447.212Z" fill="white"/>
<path d="M233.599 318.396L232.751 314.158L223.282 314.158L221.775 318.365L214.185 318.381C217.799 309.691 221.42 301.005 225.048 292.323C225.666 290.85 226.762 290.1 228.378 290.108C229.614 290.119 231.629 290.119 234.427 290.112L240.296 318.384L233.599 318.396ZM225.414 308.354L231.516 308.354L229.237 297.732L225.414 308.354ZM176.488 290.104L184.12 290.112L172.322 318.399L164.597 318.392C162.654 310.92 160.736 303.442 158.841 295.957C158.465 294.466 157.719 293.422 156.284 292.929C155.007 292.488 152.879 291.81 149.896 290.888L149.896 290.115L162.088 290.115C164.198 290.115 165.429 291.136 165.825 293.23C166.224 295.328 167.226 300.67 168.838 309.254L176.488 290.104ZM194.606 290.112L188.572 318.392L181.31 318.384L187.336 290.104L194.606 290.112ZM209.334 289.588C211.507 289.588 214.246 290.266 215.82 290.888L214.547 296.752C213.123 296.18 210.78 295.408 208.81 295.434C205.948 295.483 204.177 296.684 204.177 297.837C204.177 299.713 207.251 300.658 210.415 302.707C214.027 305.043 214.502 307.141 214.456 309.42C214.408 314.151 210.415 318.817 201.993 318.817C198.151 318.761 196.764 318.437 193.63 317.326L194.956 311.205C198.147 312.542 199.499 312.968 202.226 312.968C204.723 312.968 206.867 311.958 206.885 310.199C206.901 308.949 206.132 308.327 203.33 306.783C200.527 305.235 196.595 303.092 196.648 298.79C196.712 293.283 201.928 289.588 209.338 289.588L209.334 289.588Z" fill="white"/>
<path d="M214.145 296.006L215.18 291.237C213.616 290.685 211.235 290.14 209.335 290.139C205.717 290.14 202.683 291.043 200.56 292.571C198.449 294.092 197.229 296.236 197.199 298.796L197.199 298.797C197.175 300.753 198.048 302.226 199.299 303.42C200.556 304.621 202.16 305.507 203.566 306.284L203.596 306.3L214.145 296.006ZM214.145 296.006C212.691 295.467 210.617 294.858 208.803 294.883L208.801 294.883C207.3 294.908 206.047 295.236 205.15 295.741C204.277 296.232 203.626 296.968 203.626 297.837C203.626 298.474 203.892 299.009 204.293 299.465C204.684 299.911 205.222 300.303 205.817 300.675C206.329 300.994 206.914 301.317 207.526 301.655C207.629 301.712 207.733 301.77 207.838 301.828C208.57 302.233 209.341 302.669 210.115 303.17L210.115 303.17C211.869 304.304 212.81 305.347 213.317 306.336C213.822 307.322 213.927 308.312 213.905 309.409L213.905 309.414C213.882 311.622 212.941 313.82 211.006 315.474C209.07 317.128 206.104 318.265 201.997 318.266C200.091 318.238 198.82 318.144 197.647 317.925C196.591 317.728 195.597 317.428 194.272 316.967L195.355 311.968C198.156 313.121 199.579 313.519 202.226 313.519C203.539 313.519 204.798 313.255 205.753 312.725C206.713 312.192 207.424 311.346 207.437 310.206C207.437 310.206 207.437 310.205 207.437 310.205L206.885 310.199L214.145 296.006ZM233.979 290.664L239.619 317.834L234.051 317.844L233.292 314.05L233.203 313.607L232.751 313.607L223.282 313.607L222.894 313.607L222.763 313.972L221.387 317.815L215.012 317.828C218.52 309.394 222.035 300.963 225.557 292.535C225.833 291.877 226.2 291.417 226.646 291.118C227.09 290.82 227.655 290.656 228.374 290.659C229.546 290.67 231.414 290.67 233.979 290.664ZM224.895 308.167L224.629 308.905L225.414 308.905L231.516 308.905L232.198 308.905L232.055 308.238L229.776 297.616L229.371 295.73L228.718 297.545L224.895 308.167ZM151.045 290.667L162.088 290.667C163.055 290.667 163.752 290.9 164.246 291.311C164.741 291.723 165.101 292.371 165.283 293.333L165.283 293.333C165.618 295.093 166.377 299.134 167.565 305.459C167.793 306.674 168.037 307.973 168.296 309.356L168.646 311.22L169.35 309.458L176.862 290.656L183.293 290.662L171.955 317.848L165.023 317.841C163.118 310.507 161.235 303.168 159.376 295.822C158.967 294.203 158.12 292.978 156.464 292.408C155.324 292.014 153.517 291.435 151.045 290.667ZM193.925 290.662L188.126 317.84L181.991 317.834L187.782 290.656L193.925 290.662Z" stroke="black" stroke-opacity="0.1" stroke-width="1.10268"/>
<path d="M490.054 332.885L490.054 296.249C490.054 292.912 492.786 290.179 496.123 290.179L546.082 290.179C549.419 290.179 552.152 292.912 552.152 296.249L552.152 332.885C552.152 336.222 549.419 338.955 546.082 338.955L496.123 338.955C492.786 338.955 490.054 336.222 490.054 332.885Z" fill="#FFD600" stroke="#FFB800" stroke-width="1.18222"/>
<path d="M552.817 309.561L552.826 306.239L532.765 306.277C530.926 306.281 529.426 304.789 529.431 302.961C529.437 301.134 530.946 299.636 532.785 299.633L534.456 299.63L534.466 296.308L532.794 296.311C529.116 296.318 526.099 299.313 526.088 302.968C526.077 306.622 529.078 309.606 532.756 309.599L537.771 309.59L537.742 319.556L532.727 319.566C528.046 319.575 524.357 323.236 524.344 327.887C524.33 332.538 527.998 336.185 532.678 336.177L536.022 336.17L536.032 332.848L532.688 332.854C529.846 332.86 527.679 330.705 527.687 327.881C527.696 325.057 529.875 322.893 532.717 322.888L552.778 322.85L552.788 319.528L541.085 319.55L541.114 309.583L552.817 309.561Z" fill="#FFB443"/>
<path d="M509.459 319.544L504.443 319.553L504.472 309.587L509.488 309.577C513.166 309.57 516.183 306.575 516.194 302.92C516.205 299.266 513.204 296.282 509.526 296.289L504.511 296.298L504.501 299.62L509.517 299.611C511.356 299.607 512.856 301.099 512.851 302.927C512.845 304.754 511.336 306.252 509.497 306.255L489.436 306.293L489.427 309.615L501.129 309.593L501.1 319.56L489.398 319.582L489.388 322.904L509.449 322.866C512.291 322.86 514.458 325.016 514.45 327.839C514.442 330.663 512.262 332.827 509.42 332.832L506.077 332.839L506.067 336.161L509.41 336.154C514.091 336.145 517.78 332.484 517.793 327.833C517.807 323.182 514.14 319.535 509.459 319.544Z" fill="#FFB443"/>
<defs>
<filter id="filter0_di_14_170" x="0.324334" y="425.21" width="237.293" height="237.293" filterUnits="userSpaceOnUse" color-interpolation-filters="sRGB">
<feFlood flood-opacity="0" result="BackgroundImageFix"/>
<feColorMatrix in="SourceAlpha" type="matrix" values="0 0 0 0 0 0 0 0 0 0 0 0 0 0 0 0 0 0 127 0" result="hardAlpha"/>
<feOffset dx="2.20535" dy="27.5669"/>
<feGaussianBlur stdDeviation="35.837"/>
<feComposite in2="hardAlpha" operator="out"/>
<feColorMatrix type="matrix" values="0 0 0 0 0.353813 0 0 0 0 0.189844 0 0 0 0 0.5625 0 0 0 0.6 0"/>
<feBlend mode="normal" in2="BackgroundImageFix" result="effect1_dropShadow_14_170"/>
<feBlend mode="normal" in="SourceGraphic" in2="effect1_dropShadow_14_170" result="shape"/>
<feColorMatrix in="SourceAlpha" type="matrix" values="0 0 0 0 0 0 0 0 0 0 0 0 0 0 0 0 0 0 127 0" result="hardAlpha"/>
<feOffset dx="-23.1562" dy="-19.8482"/>
<feGaussianBlur stdDeviation="41.3504"/>
<feComposite in2="hardAlpha" operator="arithmetic" k2="-1" k3="1"/>
<feColorMatrix type="matrix" values="0 0 0 0 0.218167 0 0 0 0 0 0 0 0 0 0.495833 0 0 0 1 0"/>
<feBlend mode="normal" in2="shape" result="effect2_innerShadow_14_170"/>
</filter>
<filter id="filter1_di_14_170" x="480.22" y="9.73285" width="299.426" height="299.426" filterUnits="userSpaceOnUse" color-interpolation-filters="sRGB">
<feFlood flood-opacity="0" result="BackgroundImageFix"/>
<feColorMatrix in="SourceAlpha" type="matrix" values="0 0 0 0 0 0 0 0 0 0 0 0 0 0 0 0 0 0 127 0" result="hardAlpha"/>
<feOffset dx="-8.82141" dy="-4.41071"/>
<feGaussianBlur stdDeviation="21.5022"/>
<feComposite in2="hardAlpha" operator="out"/>
<feColorMatrix type="matrix" values="0 0 0 0 0.595833 0 0 0 0 0.595833 0 0 0 0 0.595833 0 0 0 0.39 0"/>
<feBlend mode="normal" in2="BackgroundImageFix" result="effect1_dropShadow_14_170"/>
<feBlend mode="normal" in="SourceGraphic" in2="effect1_dropShadow_14_170" result="shape"/>
<feColorMatrix in="SourceAlpha" type="matrix" values="0 0 0 0 0 0 0 0 0 0 0 0 0 0 0 0 0 0 127 0" result="hardAlpha"/>
<feOffset dy="22.0535"/>
<feGaussianBlur stdDeviation="27.0156"/>
<feComposite in2="hardAlpha" operator="arithmetic" k2="-1" k3="1"/>
<feColorMatrix type="matrix" values="0 0 0 0 0.770833 0 0 0 0 0.770833 0 0 0 0 0.770833 0 0 0 1 0"/>
<feBlend mode="normal" in2="shape" result="effect2_innerShadow_14_170"/>
</filter>
<filter id="filter2_b_14_170" x="84.3366" y="230.244" width="533.964" height="307.963" filterUnits="userSpaceOnUse" color-interpolation-filters="sRGB">
<feFlood flood-opacity="0" result="BackgroundImageFix"/>
<feGaussianBlur in="BackgroundImageFix" stdDeviation="11.0268"/>
<feComposite in2="SourceAlpha" operator="in" result="effect1_backgroundBlur_14_170"/>
<feBlend mode="normal" in="SourceGraphic" in2="effect1_backgroundBlur_14_170" result="shape"/>
</filter>
<linearGradient id="paint0_linear_14_170" x1="149.395" y1="157.469" x2="653.942" y2="433.473" gradientUnits="userSpaceOnUse">
<stop stop-color="#5200FF"/>
<stop offset="1" stop-color="#BD00FF"/>
</linearGradient>
<linearGradient id="paint1_linear_14_170" x1="394.323" y1="157.469" x2="394.323" y2="421.325" gradientUnits="userSpaceOnUse">
<stop stop-color="#E4D4FF"/>
<stop offset="1" stop-color="white" stop-opacity="0.35"/>
</linearGradient>
</defs>
</svg>
