<svg width="103" height="46" viewBox="0 0 103 46" fill="none" xmlns="http://www.w3.org/2000/svg">
<circle cx="22.9033" cy="22.9033" r="22.5386" stroke="#BD00FF" stroke-width="0.729404"/>
<path d="M15.8748 32.6773V12.5142H24.4308C26.0447 12.5142 27.4376 13.0558 28.6093 14.1391C29.7811 15.2446 30.367 16.5932 30.367 18.185C30.367 19.0915 30.1459 19.9206 29.7037 20.6723C29.2394 21.4239 28.6204 21.9877 27.8466 22.3636C28.7973 22.8057 29.549 23.4358 30.1017 24.2539C30.6986 25.094 30.9971 26.0115 30.9971 27.0064C30.9971 28.6424 30.3338 30.0021 29.0073 31.0854C27.725 32.1466 26.1995 32.6773 24.4308 32.6773H15.8748ZM18.3951 30.4222H24.4308C25.5141 30.4222 26.4537 30.1126 27.2497 29.4936C28.0677 28.8303 28.4767 28.0013 28.4767 27.0064C28.4767 25.9894 28.0677 25.1382 27.2497 24.4528C26.4537 23.7896 25.5141 23.4579 24.4308 23.4579H18.3951V30.4222ZM18.3951 21.2029H24.4308C25.3594 21.2029 26.1553 20.9154 26.8185 20.3406C27.5039 19.7658 27.8466 19.0473 27.8466 18.185C27.8466 17.2565 27.515 16.4606 26.8517 15.7973C26.1884 15.134 25.3815 14.8024 24.4308 14.8024H18.3951V21.2029Z" fill="#BD00FF"/>
<path d="M54.5593 20.4343V11.8402H58.2062C58.8941 11.8402 59.4877 12.071 59.9872 12.5328C60.4866 13.0039 60.7363 13.5788 60.7363 14.2572C60.7363 14.6436 60.6421 14.997 60.4536 15.3174C60.2557 15.6378 59.9919 15.8781 59.6621 16.0383C60.0673 16.2267 60.3877 16.4953 60.6233 16.844C60.8777 17.202 61.0049 17.5931 61.0049 18.0172C61.0049 18.7145 60.7222 19.294 60.1568 19.7558C59.6102 20.2081 58.96 20.4343 58.2062 20.4343H54.5593ZM55.6336 19.4731H58.2062C58.6679 19.4731 59.0684 19.3411 59.4076 19.0773C59.7563 18.7946 59.9306 18.4412 59.9306 18.0172C59.9306 17.5837 59.7563 17.2209 59.4076 16.9288C59.0684 16.6461 58.6679 16.5047 58.2062 16.5047H55.6336V19.4731ZM55.6336 15.5435H58.2062C58.6019 15.5435 58.9412 15.421 59.2239 15.176C59.516 14.931 59.6621 14.6248 59.6621 14.2572C59.6621 13.8615 59.5207 13.5222 59.238 13.2395C58.9553 12.9568 58.6114 12.8155 58.2062 12.8155H55.6336V15.5435Z" fill="#BD00FF"/>
<path d="M62.4929 20.4343V19.3035H63.6237V20.4343H62.4929Z" fill="#BD00FF"/>
<path d="M65.1524 16.1372C65.1524 14.7897 65.4728 13.706 66.1136 12.8861C66.7638 12.0757 67.6214 11.6705 68.6862 11.6705C69.5249 11.6705 70.2505 11.9391 70.863 12.4762C71.4849 13.0228 71.8336 13.706 71.909 14.5258H70.8347C70.7876 13.9887 70.5567 13.5364 70.1421 13.1688C69.7275 12.8108 69.2422 12.6317 68.6862 12.6317C67.9135 12.6317 67.2963 12.9992 66.8345 13.7342C66.4293 14.3939 66.2267 15.1949 66.2267 16.1372C66.2267 17.0607 66.434 17.8475 66.8486 18.4978C67.3104 19.2139 67.9229 19.572 68.6862 19.572C69.3176 19.572 69.8264 19.3836 70.2128 19.0066C70.6086 18.6297 70.8159 18.1255 70.8347 17.4942H71.909C71.909 18.4177 71.6169 19.1527 71.0326 19.6992C70.439 20.2552 69.6568 20.5332 68.6862 20.5332C67.6214 20.5332 66.7638 20.1327 66.1136 19.3317C65.4728 18.5307 65.1524 17.4659 65.1524 16.1372Z" fill="#BD00FF"/>
<path d="M72.6901 20.4343L75.4889 11.8402H76.8741L79.6728 20.4343H78.5986L77.7363 17.8617H74.6266L73.7644 20.4343H72.6901ZM74.9376 16.9005H77.4254L76.1815 13.183L74.9376 16.9005Z" fill="#BD00FF"/>
<path d="M80.9597 20.4343V11.8402H84.6631C85.5112 11.8402 86.1897 12.071 86.6985 12.5328C87.2074 12.9851 87.4618 13.5929 87.4618 14.3562C87.4618 14.8274 87.3393 15.2561 87.0943 15.6425C86.8305 16.0288 86.4865 16.3021 86.0625 16.4623C86.3734 16.679 86.6184 16.9429 86.7975 17.2539C86.986 17.5837 87.0802 17.9276 87.0802 18.2857L87.1367 19.9537C87.1367 20.0479 87.1886 20.1751 87.2922 20.3353L87.3488 20.4343H86.2745L86.2462 20.3777C86.1237 20.1704 86.0625 20.0102 86.0625 19.8971L86.0059 18.2857C86.0059 17.8711 85.8222 17.5319 85.4547 17.268C85.1154 17.023 84.7102 16.9005 84.239 16.9005H82.034V20.4343H80.9597ZM82.034 15.9252H84.6631C85.1814 15.9252 85.6007 15.7838 85.9211 15.5011C86.2321 15.209 86.3876 14.8274 86.3876 14.3562C86.3876 13.8944 86.2321 13.5222 85.9211 13.2395C85.6007 12.9568 85.1814 12.8155 84.6631 12.8155H82.034V15.9252Z" fill="#BD00FF"/>
<path d="M88.9933 20.4343V11.8402H91.6789C92.8474 11.8402 93.7803 12.2312 94.4777 13.0134C95.1844 13.7955 95.5378 14.8368 95.5378 16.1372C95.5378 17.4376 95.1844 18.4789 94.4777 19.261C93.7803 20.0432 92.8474 20.4343 91.6789 20.4343H88.9933ZM90.0675 19.4731H91.6789C92.5176 19.4731 93.1914 19.1715 93.7002 18.5684C94.2091 17.9559 94.4635 17.1455 94.4635 16.1372C94.4635 15.1289 94.2091 14.3232 93.7002 13.7201C93.1914 13.117 92.5176 12.8155 91.6789 12.8155H90.0675V19.4731Z" fill="#BD00FF"/>
<path d="M96.5543 17.5366H97.6286C97.6286 18.1868 97.8265 18.7051 98.2222 19.0914C98.6086 19.4872 99.1269 19.6851 99.7771 19.6851C100.427 19.6851 100.946 19.539 101.332 19.2469C101.728 18.9548 101.926 18.5637 101.926 18.0737C101.926 17.6308 101.695 17.2774 101.233 17.0136C100.894 16.8251 100.408 16.6743 99.7771 16.5613C98.9384 16.4105 98.2458 16.1325 97.6992 15.7273C97.0773 15.2561 96.7663 14.6766 96.7663 13.9887C96.7663 13.2914 97.0396 12.7307 97.5862 12.3066C98.1327 11.8826 98.863 11.6705 99.7771 11.6705C100.691 11.6705 101.421 11.9203 101.968 12.4197C102.515 12.9191 102.788 13.5835 102.788 14.4127H101.714C101.619 13.8756 101.398 13.4421 101.049 13.1123C100.691 12.7919 100.267 12.6317 99.7771 12.6317C99.1928 12.6317 98.7217 12.7542 98.3636 12.9992C98.0149 13.2442 97.8406 13.5741 97.8406 13.9887C97.8406 14.4222 98.0432 14.785 98.4484 15.0771C98.7876 15.3315 99.2305 15.5058 99.7771 15.6001C100.71 15.7603 101.44 16.0053 101.968 16.3351C102.656 16.7497 103 17.2963 103 17.9748C103 18.7852 102.708 19.4307 102.124 19.9113C101.53 20.4013 100.748 20.6463 99.7771 20.6463C98.8065 20.6463 98.0243 20.3636 97.4307 19.7982C96.8464 19.2328 96.5543 18.4789 96.5543 17.5366Z" fill="#BD00FF"/>
<path d="M55.6782 34.1469L54.5593 28.2679H55.0429L55.9248 33.1703L55.9343 33.303H55.9437V33.1703L56.854 28.5714H57.2333L58.0678 33.1703L58.0772 33.303H58.0867L58.0962 33.1703L58.9496 28.2679H59.4427L58.3427 34.1469H57.8497L57.0626 29.7187V29.6144H57.0532L57.0437 29.7187L56.1713 34.1469H55.6782Z" fill="#BD00FF"/>
<path d="M61.3353 28.2679H61.8189V34.1469H61.3353V28.2679Z" fill="#BD00FF"/>
<path d="M64.7391 28.6567H63.6961V28.2679H66.2847V28.6567H65.2227V34.1469H64.7391V28.6567Z" fill="#BD00FF"/>
<path d="M68.1484 28.2679H68.632V30.648H70.3294V28.2679H70.813V34.1469H70.3294V31.0273H68.632V34.1469H68.1484V28.2679Z" fill="#BD00FF"/>
<path d="M75.7579 28.2679H78.3751V28.6567H76.2415V30.648H78.2233L78.1475 31.0273H76.2415V33.7677H78.3751V34.1469H75.7579V28.2679Z" fill="#BD00FF"/>
<path d="M79.9705 34.1469L81.2222 28.2679H81.9428L83.1755 34.1469H82.673L82.3695 32.7151L82.4738 32.81H80.6627L80.7481 32.7151L80.4636 34.1469H79.9705ZM80.7575 32.4781L80.7101 32.4212H82.4359L82.3695 32.4781L81.6773 28.8843L81.6584 28.8179H81.4972L81.4782 28.8843L80.7575 32.4781Z" fill="#BD00FF"/>
<path d="M86.3044 34.1849C86.0326 34.1786 85.7924 34.1564 85.5838 34.1185C85.3752 34.0743 85.2077 33.9984 85.0812 33.8909C84.9611 33.7835 84.9011 33.6286 84.9011 33.4263V32.2031L85.3847 32.1367V33.2556C85.3847 33.4263 85.4479 33.559 85.5743 33.6539C85.7071 33.7487 85.941 33.7961 86.276 33.7961C86.5036 33.7961 86.6743 33.774 86.788 33.7297C86.9081 33.6792 86.9872 33.6033 87.0251 33.5022C87.0693 33.3947 87.0915 33.2588 87.0915 33.0944V32.2315C87.0915 31.9976 87.0346 31.8143 86.9208 31.6816C86.8133 31.5425 86.6521 31.4413 86.4372 31.3781L85.6976 31.179C85.4194 31.0905 85.2171 30.9799 85.0907 30.8471C84.9643 30.7144 84.9011 30.5058 84.9011 30.2213V29.1782C84.9011 28.9001 84.9611 28.6947 85.0812 28.5619C85.2013 28.4291 85.3657 28.3438 85.5743 28.3059C85.7829 28.2616 86.0231 28.2395 86.295 28.2395C86.5668 28.2395 86.7944 28.2616 86.9777 28.3059C87.1673 28.3501 87.3127 28.426 87.4139 28.5335C87.5213 28.6409 87.5751 28.7958 87.5751 28.9981V30.2213L87.0915 30.3066V29.2067C87.0915 28.9918 87.0377 28.84 86.9303 28.7515C86.8228 28.6567 86.6047 28.6093 86.276 28.6093C85.941 28.6093 85.7071 28.663 85.5743 28.7705C85.4479 28.878 85.3847 29.0676 85.3847 29.3394V30.136C85.3847 30.3382 85.4416 30.4994 85.5553 30.6195C85.6755 30.7333 85.824 30.8155 86.001 30.8661L86.7691 31.0842C87.0599 31.1664 87.2653 31.2833 87.3854 31.435C87.5118 31.5867 87.5751 31.808 87.5751 32.0988V33.2177C87.5751 33.4895 87.5245 33.695 87.4233 33.834C87.3222 33.9731 87.1768 34.0648 86.9872 34.109C86.8038 34.1533 86.5763 34.1786 86.3044 34.1849Z" fill="#BD00FF"/>
<path d="M89.6817 28.2679H92.2988V28.6567H90.1653V30.648H92.1471L92.0712 31.0273H90.1653V33.7677H92.2988V34.1469H89.6817V28.2679Z" fill="#BD00FF"/>
</svg>
