<svg width="140" height="63" viewBox="0 0 140 63" fill="none" xmlns="http://www.w3.org/2000/svg">
<circle cx="31.1307" cy="31.7915" r="30.635" stroke="white" stroke-width="0.991423"/>
<path d="M21.5775 45.0766V17.6704H33.2071C35.4008 17.6704 37.294 18.4067 38.8867 19.8791C40.4793 21.3817 41.2757 23.2147 41.2757 25.3784C41.2757 26.6105 40.9752 27.7374 40.3742 28.7591C39.7431 29.7808 38.9017 30.5471 37.8499 31.058C39.1421 31.659 40.1638 32.5154 40.9151 33.6273C41.7264 34.7692 42.1321 36.0163 42.1321 37.3686C42.1321 39.5923 41.2306 41.4404 39.4276 42.9129C37.6846 44.3553 35.6111 45.0766 33.2071 45.0766H21.5775ZM25.0033 42.0114H33.2071C34.6796 42.0114 35.9567 41.5907 37.0385 40.7493C38.1504 39.8478 38.7064 38.7209 38.7064 37.3686C38.7064 35.9863 38.1504 34.8293 37.0385 33.8977C35.9567 32.9962 34.6796 32.5455 33.2071 32.5455H25.0033V42.0114ZM25.0033 29.4803H33.2071C34.4692 29.4803 35.551 29.0896 36.4526 28.3083C37.3841 27.527 37.8499 26.5504 37.8499 25.3784C37.8499 24.1163 37.3992 23.0344 36.4976 22.1329C35.5961 21.2314 34.4993 20.7806 33.2071 20.7806H25.0033V29.4803Z" fill="white"/>
<path d="M74.1585 28.4355V16.7542H79.1154C80.0504 16.7542 80.8573 17.068 81.5362 17.6957C82.215 18.3361 82.5544 19.1174 82.5544 20.0396C82.5544 20.5647 82.4264 21.0451 82.1702 21.4806C81.9012 21.916 81.5426 22.2427 81.0943 22.4604C81.645 22.7166 82.0805 23.0816 82.4007 23.5555C82.7466 24.0422 82.9195 24.5738 82.9195 25.1502C82.9195 26.098 82.5352 26.8857 81.7667 27.5133C81.0238 28.1281 80.1401 28.4355 79.1154 28.4355H74.1585ZM75.6187 27.1291H79.1154C79.743 27.1291 80.2874 26.9498 80.7485 26.5911C81.2224 26.2069 81.4593 25.7266 81.4593 25.1502C81.4593 24.561 81.2224 24.0679 80.7485 23.6708C80.2874 23.2865 79.743 23.0944 79.1154 23.0944H75.6187V27.1291ZM75.6187 21.788H79.1154C79.6533 21.788 80.1144 21.6214 80.4987 21.2884C80.8958 20.9554 81.0943 20.5391 81.0943 20.0396C81.0943 19.5016 80.9022 19.0405 80.5179 18.6563C80.1337 18.272 79.6661 18.0799 79.1154 18.0799H75.6187V21.788Z" fill="white"/>
<path d="M84.942 28.4355V26.8985H86.479V28.4355H84.942Z" fill="white"/>
<path d="M88.5569 22.5949C88.5569 20.7633 88.9924 19.2903 89.8634 18.176C90.7472 17.0744 91.9127 16.5237 93.3601 16.5237C94.5 16.5237 95.4863 16.8887 96.3188 17.6188C97.1642 18.3617 97.6381 19.2903 97.7406 20.4046H96.2804C96.2164 19.6746 95.9026 19.0598 95.339 18.5602C94.7754 18.0735 94.1158 17.8301 93.3601 17.8301C92.3098 17.8301 91.4708 18.3297 90.8432 19.3287C90.2925 20.2253 90.0171 21.314 90.0171 22.5949C90.0171 23.8501 90.2989 24.9196 90.8624 25.8034C91.4901 26.7768 92.3226 27.2636 93.3601 27.2636C94.2183 27.2636 94.9099 27.0074 95.4351 26.4951C95.973 25.9827 96.2548 25.2975 96.2804 24.4393H97.7406C97.7406 25.6945 97.3435 26.6936 96.5494 27.4365C95.7425 28.1922 94.6794 28.57 93.3601 28.57C91.9127 28.57 90.7472 28.0257 89.8634 26.937C88.9924 25.8482 88.5569 24.4009 88.5569 22.5949Z" fill="white"/>
<path d="M98.8023 28.4355L102.606 16.7542H104.489L108.293 28.4355H106.833L105.661 24.9388H101.434L100.262 28.4355H98.8023ZM101.857 23.6324H105.239L103.548 18.5794L101.857 23.6324Z" fill="white"/>
<path d="M110.043 28.4355V16.7542H115.076C116.229 16.7542 117.151 17.068 117.843 17.6957C118.535 18.3105 118.88 19.1366 118.88 20.1741C118.88 20.8145 118.714 21.3973 118.381 21.9224C118.022 22.4476 117.555 22.819 116.978 23.0368C117.401 23.3314 117.734 23.69 117.977 24.1127C118.234 24.561 118.362 25.0285 118.362 25.5152L118.438 27.7823C118.438 27.9104 118.509 28.0833 118.65 28.3011L118.727 28.4355H117.266L117.228 28.3587C117.062 28.0769 116.978 27.8592 116.978 27.7055L116.901 25.5152C116.901 24.9516 116.652 24.4905 116.152 24.1319C115.691 23.7989 115.14 23.6324 114.5 23.6324H111.503V28.4355H110.043ZM111.503 22.3067H115.076C115.781 22.3067 116.351 22.1146 116.786 21.7303C117.209 21.3333 117.42 20.8145 117.42 20.1741C117.42 19.5465 117.209 19.0405 116.786 18.6563C116.351 18.272 115.781 18.0799 115.076 18.0799H111.503V22.3067Z" fill="white"/>
<path d="M120.962 28.4355V16.7542H124.612C126.201 16.7542 127.469 17.2858 128.416 18.3489C129.377 19.412 129.857 20.8273 129.857 22.5949C129.857 24.3625 129.377 25.7778 128.416 26.8409C127.469 27.904 126.201 28.4355 124.612 28.4355H120.962ZM122.422 27.1291H124.612C125.752 27.1291 126.668 26.7192 127.36 25.8995C128.051 25.0669 128.397 23.9654 128.397 22.5949C128.397 21.2244 128.051 20.1293 127.36 19.3095C126.668 18.4898 125.752 18.0799 124.612 18.0799H122.422V27.1291Z" fill="white"/>
<path d="M131.239 24.4969H132.699C132.699 25.3807 132.968 26.0852 133.506 26.6103C134.031 27.1483 134.736 27.4173 135.62 27.4173C136.503 27.4173 137.208 27.2187 137.733 26.8217C138.271 26.4246 138.54 25.8931 138.54 25.227C138.54 24.625 138.226 24.1447 137.598 23.7861C137.137 23.5299 136.478 23.325 135.62 23.1713C134.48 22.9663 133.538 22.5885 132.795 22.0377C131.95 21.3973 131.527 20.6096 131.527 19.6746C131.527 18.7267 131.899 17.9646 132.642 17.3883C133.384 16.8119 134.377 16.5237 135.62 16.5237C136.862 16.5237 137.855 16.8631 138.598 17.542C139.34 18.2208 139.712 19.1238 139.712 20.2509H138.252C138.124 19.5209 137.823 18.9317 137.349 18.4834C136.862 18.0479 136.286 17.8301 135.62 17.8301C134.825 17.8301 134.185 17.9967 133.698 18.3297C133.224 18.6627 132.987 19.111 132.987 19.6746C132.987 20.2637 133.263 20.7569 133.814 21.1539C134.275 21.4998 134.877 21.7367 135.62 21.8648C136.888 22.0825 137.88 22.4156 138.598 22.8639C139.533 23.4274 140 24.1703 140 25.0925C140 26.1941 139.603 27.0714 138.809 27.7247C138.002 28.3907 136.939 28.7237 135.62 28.7237C134.3 28.7237 133.237 28.3395 132.43 27.571C131.636 26.8025 131.239 25.7778 131.239 24.4969Z" fill="white"/>
<path d="M75.6794 47.0741L74.1585 39.0832H74.8158L76.0145 45.7466L76.0273 45.927H76.0402V45.7466L77.2775 39.4957H77.7931L78.9273 45.7466L78.9401 45.927H78.953L78.9659 45.7466L80.1259 39.0832H80.7961L79.301 47.0741H78.6308L77.5611 41.0552V40.9134H77.5482L77.5353 41.0552L76.3496 47.0741H75.6794Z" fill="white"/>
<path d="M83.3686 39.0832H84.0259V47.0741H83.3686V39.0832Z" fill="white"/>
<path d="M87.9951 39.6116H86.5774V39.0832H90.096V39.6116H88.6524V47.0741H87.9951V39.6116Z" fill="white"/>
<path d="M92.6291 39.0832H93.2865V42.3182H95.5935V39.0832H96.2508V47.0741H95.5935V42.8338H93.2865V47.0741H92.6291V39.0832Z" fill="white"/>
<path d="M102.972 39.0832H106.529V39.6116H103.629V42.3182H106.323L106.22 42.8338H103.629V46.5586H106.529V47.0741H102.972V39.0832Z" fill="white"/>
<path d="M108.698 47.0741L110.399 39.0832H111.379L113.054 47.0741H112.371L111.959 45.1279L112.101 45.2568H109.639L109.755 45.1279L109.368 47.0741H108.698ZM109.768 44.8057L109.703 44.7284H112.049L111.959 44.8057L111.018 39.921L110.992 39.8308H110.773L110.747 39.921L109.768 44.8057Z" fill="white"/>
<path d="M117.307 47.1256C116.938 47.1171 116.611 47.087 116.328 47.0354C116.044 46.9753 115.816 46.8722 115.645 46.7261C115.481 46.58 115.4 46.3695 115.4 46.0946V44.432L116.057 44.3417V45.8626C116.057 46.0946 116.143 46.275 116.315 46.4039C116.495 46.5328 116.813 46.5972 117.269 46.5972C117.578 46.5972 117.81 46.5671 117.965 46.507C118.128 46.4383 118.235 46.3352 118.287 46.1977C118.347 46.0516 118.377 45.8669 118.377 45.6435V44.4706C118.377 44.1527 118.3 43.9035 118.145 43.7231C117.999 43.5341 117.78 43.3966 117.488 43.3107L116.482 43.04C116.104 42.9197 115.829 42.7693 115.657 42.5889C115.486 42.4085 115.4 42.1249 115.4 41.7383V40.3205C115.4 39.9425 115.481 39.6632 115.645 39.4828C115.808 39.3023 116.031 39.1863 116.315 39.1348C116.598 39.0746 116.925 39.0446 117.294 39.0446C117.664 39.0446 117.973 39.0746 118.222 39.1348C118.48 39.1949 118.678 39.298 118.815 39.4441C118.961 39.5902 119.034 39.8007 119.034 40.0756V41.7383L118.377 41.8543V40.3592C118.377 40.067 118.304 39.8608 118.158 39.7405C118.012 39.6116 117.715 39.5472 117.269 39.5472C116.813 39.5472 116.495 39.6202 116.315 39.7663C116.143 39.9124 116.057 40.1702 116.057 40.5396V41.6223C116.057 41.8972 116.134 42.1163 116.289 42.2796C116.452 42.4342 116.654 42.5459 116.895 42.6147L117.939 42.9111C118.334 43.0228 118.613 43.1818 118.777 43.388C118.948 43.5942 119.034 43.8949 119.034 44.2902V45.811C119.034 46.1805 118.966 46.4597 118.828 46.6488C118.691 46.8378 118.493 46.9624 118.235 47.0225C117.986 47.0827 117.677 47.1171 117.307 47.1256Z" fill="white"/>
<path d="M121.898 39.0832H125.455V39.6116H122.555V42.3182H125.249L125.146 42.8338H122.555V46.5586H125.455V47.0741H121.898V39.0832Z" fill="white"/>
</svg>
