<svg width="245" height="49" viewBox="0 0 245 49" fill="none" xmlns="http://www.w3.org/2000/svg">
<path opacity="0.5" d="M231.539 49H226.618C226.618 48.7239 226.395 48.5 226.118 48.5H220.197C219.921 48.5 219.697 48.7239 219.697 49H214.776C214.776 48.7239 214.552 48.5 214.276 48.5H208.355C208.079 48.5 207.855 48.7239 207.855 49H202.934C202.934 48.7239 202.71 48.5 202.434 48.5H196.513C196.237 48.5 196.013 48.7239 196.013 49H191.092C191.092 48.7239 190.868 48.5 190.592 48.5H184.671C184.395 48.5 184.171 48.7239 184.171 49H179.25C179.25 48.7239 179.026 48.5 178.75 48.5H172.829C172.553 48.5 172.329 48.7239 172.329 49H167.408C167.408 48.7239 167.184 48.5 166.908 48.5H160.987C160.711 48.5 160.487 48.7239 160.487 49H155.566C155.566 48.7239 155.342 48.5 155.066 48.5H149.145C148.869 48.5 148.645 48.7239 148.645 49H143.724C143.724 48.7239 143.5 48.5 143.224 48.5H137.303C137.027 48.5 136.803 48.7239 136.803 49H131.882C131.882 48.7239 131.658 48.5 131.382 48.5H125.461C125.184 48.5 124.961 48.7239 124.961 49H120.039C120.039 48.7239 119.816 48.5 119.539 48.5H113.618C113.342 48.5 113.118 48.7239 113.118 49H108.197C108.197 48.7239 107.974 48.5 107.697 48.5H101.776C101.5 48.5 101.276 48.7239 101.276 49H96.3553C96.3553 48.7239 96.1314 48.5 95.8553 48.5H89.9342C89.6581 48.5 89.4342 48.7239 89.4342 49H84.5132C84.5132 48.7239 84.2893 48.5 84.0132 48.5H78.0921C77.816 48.5 77.5921 48.7239 77.5921 49H72.6711C72.6711 48.7239 72.4472 48.5 72.1711 48.5H66.25C65.9739 48.5 65.75 48.7239 65.75 49H60.829C60.829 48.7239 60.6051 48.5 60.329 48.5H54.4079C54.1318 48.5 53.9079 48.7239 53.9079 49H48.9869C48.9869 48.7239 48.763 48.5 48.4869 48.5H42.5658C42.2897 48.5 42.0658 48.7239 42.0658 49H37.1448C37.1448 48.7239 36.9209 48.5 36.6448 48.5H30.7237C30.4476 48.5 30.2237 48.7239 30.2237 49H25.3027C25.3027 48.7239 25.0788 48.5 24.8027 48.5H18.8816C18.6055 48.5 18.3816 48.7239 18.3816 49H13.4606C13.4606 48.7239 13.2367 48.5 12.9606 48.5H10C8.71096 48.5 7.48308 48.2435 6.36365 47.7793C6.11245 47.6752 5.82493 47.791 5.71522 48.0381C3.63492 47.0501 1.94987 45.3651 0.961888 43.2848C1.20904 43.1751 1.32484 42.8875 1.22067 42.6363C0.756459 41.5169 0.5 40.289 0.5 39V35.375C0.5 35.0989 0.276142 34.875 0 34.875V28.625C0.276142 28.625 0.5 28.4011 0.5 28.125V20.875C0.5 20.5989 0.276142 20.375 0 20.375V14.125C0.276142 14.125 0.5 13.9011 0.5 13.625V10C0.5 8.71096 0.756459 7.48308 1.22067 6.36365C1.32483 6.11245 1.20904 5.82493 0.961887 5.71522C1.94986 3.63492 3.63491 1.94987 5.71521 0.961887C5.82493 1.20905 6.11245 1.32484 6.36364 1.22067C7.48307 0.756458 8.71095 0.5 10 0.5H12.9605C13.2367 0.5 13.4605 0.276142 13.4605 0H18.3816C18.3816 0.276142 18.6054 0.5 18.8816 0.5H24.8026C25.0788 0.5 25.3026 0.276142 25.3026 0H30.2237C30.2237 0.276142 30.4475 0.5 30.7237 0.5H36.6447C36.9209 0.5 37.1447 0.276142 37.1447 0H42.0658C42.0658 0.276142 42.2896 0.5 42.5658 0.5H48.4868C48.763 0.5 48.9868 0.276142 48.9868 0H53.9079C53.9079 0.276142 54.1317 0.5 54.4079 0.5H60.3289C60.6051 0.5 60.8289 0.276142 60.8289 0H65.75C65.75 0.276142 65.9738 0.5 66.25 0.5H72.171C72.4472 0.5 72.671 0.276142 72.671 0H77.5921C77.5921 0.276142 77.8159 0.5 78.0921 0.5H84.0131C84.2893 0.5 84.5131 0.276142 84.5131 0H89.4342C89.4342 0.276142 89.6581 0.5 89.9342 0.5H95.8552C96.1314 0.5 96.3552 0.276142 96.3552 0H101.276C101.276 0.276142 101.5 0.5 101.776 0.5H107.697C107.973 0.5 108.197 0.276142 108.197 0H113.118C113.118 0.276142 113.342 0.5 113.618 0.5H119.539C119.816 0.5 120.039 0.276142 120.039 0H124.961C124.961 0.276142 125.184 0.5 125.461 0.5H131.382C131.658 0.5 131.882 0.276142 131.882 0H136.803C136.803 0.276142 137.026 0.5 137.303 0.5H143.224C143.5 0.5 143.724 0.276142 143.724 0H148.645C148.645 0.276142 148.869 0.5 149.145 0.5H155.066C155.342 0.5 155.566 0.276142 155.566 0H160.487C160.487 0.276142 160.711 0.5 160.987 0.5H166.908C167.184 0.5 167.408 0.276142 167.408 0H172.329C172.329 0.276142 172.553 0.5 172.829 0.5H178.75C179.026 0.5 179.25 0.276142 179.25 0H184.171C184.171 0.276142 184.395 0.5 184.671 0.5H190.592C190.868 0.5 191.092 0.276142 191.092 0H196.013C196.013 0.276142 196.237 0.5 196.513 0.5H202.434C202.71 0.5 202.934 0.276142 202.934 0H207.855C207.855 0.276142 208.079 0.5 208.355 0.5H214.276C214.552 0.5 214.776 0.276142 214.776 0H219.697C219.697 0.276142 219.921 0.5 220.197 0.5H226.118C226.395 0.5 226.618 0.276142 226.618 0H231.539C231.539 0.276142 231.763 0.5 232.039 0.5H235C236.289 0.5 237.517 0.756458 238.636 1.22067C238.888 1.32484 239.175 1.20905 239.285 0.961887C241.365 1.94987 243.05 3.63491 244.038 5.71522C243.791 5.82493 243.675 6.11245 243.779 6.36365C244.244 7.48308 244.5 8.71096 244.5 10V13.5C244.5 13.7761 244.724 14 245 14V20C244.724 20 244.5 20.2239 244.5 20.5V24V27.75C244.5 28.0261 244.724 28.25 245 28.25V34.75C244.724 34.75 244.5 34.9739 244.5 35.25V39C244.5 40.289 244.244 41.5169 243.779 42.6364C243.675 42.8875 243.791 43.1751 244.038 43.2848C243.05 45.3651 241.365 47.0501 239.285 48.0381C239.175 47.791 238.888 47.6752 238.636 47.7793C237.517 48.2435 236.289 48.5 235 48.5H232.039C231.763 48.5 231.539 48.7239 231.539 49Z" stroke="url(#paint0_linear_94_24)" stroke-linecap="round" stroke-linejoin="round" stroke-dasharray="6 6"/>
<defs>
<linearGradient id="paint0_linear_94_24" x1="256.251" y1="49" x2="-7.52471" y2="-41.0395" gradientUnits="userSpaceOnUse">
<stop stop-color="#BD00FF"/>
<stop offset="1" stop-color="#7000FF"/>
</linearGradient>
</defs>
</svg>
