<svg width="21" height="21" viewBox="0 0 21 21" fill="none" xmlns="http://www.w3.org/2000/svg">
<path d="M14.8636 0.909058H5.31815C2.68224 0.909058 0.54541 3.04588 0.54541 5.68179V15.2273C0.54541 17.8632 2.68224 20 5.31815 20H14.8636C17.4995 20 19.6364 17.8632 19.6364 15.2273V5.68179C19.6364 3.04588 17.4995 0.909058 14.8636 0.909058Z" fill="url(#paint0_linear_262_3)" stroke="url(#paint1_linear_262_3)" stroke-width="0.80992" stroke-linecap="round" stroke-linejoin="round"/>
<path d="M13.909 9.85322C14.0268 10.6476 13.8912 11.459 13.5213 12.1718C13.1514 12.8847 12.5661 13.4628 11.8488 13.8238C11.1314 14.1849 10.3185 14.3106 9.52556 14.183C8.73266 14.0554 8.00017 13.681 7.43229 13.1132C6.86441 12.5453 6.49005 11.8128 6.36246 11.0199C6.23487 10.227 6.36055 9.41403 6.72162 8.69667C7.08269 7.9793 7.66076 7.39406 8.37361 7.02417C9.08647 6.65429 9.8978 6.51859 10.6922 6.6364C11.5026 6.75656 12.2528 7.13416 12.832 7.71342C13.4113 8.29268 13.7889 9.04288 13.909 9.85322Z" fill="white"/>
<path d="M16.7625 4.86735C16.792 4.66875 16.7581 4.46592 16.6656 4.2877C16.5731 4.10949 16.4268 3.96497 16.2475 3.8747C16.0681 3.78444 15.8649 3.75302 15.6667 3.78491C15.4684 3.81681 15.2853 3.9104 15.1434 4.05237C15.0014 4.19434 14.9078 4.37746 14.8759 4.57569C14.844 4.77392 14.8754 4.97715 14.9657 5.15649C15.0559 5.33583 15.2005 5.48214 15.3787 5.57461C15.5569 5.66709 15.7597 5.70101 15.9583 5.67156C16.1609 5.64152 16.3485 5.54712 16.4933 5.4023C16.6381 5.25749 16.7325 5.06994 16.7625 4.86735Z" fill="white"/>
<defs>
<linearGradient id="paint0_linear_262_3" x1="20.513" y1="0.909052" x2="-2.3294" y2="2.4685" gradientUnits="userSpaceOnUse">
<stop stop-color="#BD00FF"/>
<stop offset="1" stop-color="#7000FF"/>
</linearGradient>
<linearGradient id="paint1_linear_262_3" x1="20.513" y1="0.909052" x2="-2.3294" y2="2.4685" gradientUnits="userSpaceOnUse">
<stop stop-color="#BD00FF"/>
<stop offset="1" stop-color="#7000FF"/>
</linearGradient>
</defs>
</svg>
