<svg width="20" height="17" viewBox="0 0 20 17" fill="none" xmlns="http://www.w3.org/2000/svg">
<path d="M17.5542 0.958676C17.5542 0.958676 19.3202 0.270067 19.1731 1.94247C19.124 2.63112 18.6825 5.04135 18.3391 7.64832L17.1617 15.3709C17.1617 15.3709 17.0636 16.5023 16.1806 16.699C15.2975 16.8958 13.973 16.0104 13.7277 15.8136C13.5315 15.6661 10.0485 13.4526 8.82203 12.3704C8.47862 12.0753 8.08615 11.485 8.87105 10.7964L14.0221 5.87756C14.6108 5.28731 15.1994 3.91002 12.7466 5.58242L5.87863 10.2553C5.87863 10.2553 5.09369 10.7472 3.62201 10.3045L0.433287 9.32076C0.433287 9.32076 -0.744088 8.58294 1.26726 7.84507C6.17297 5.5332 12.207 3.17215 17.5542 0.958676Z" fill="url(#paint0_linear_262_23)"/>
<defs>
<linearGradient id="paint0_linear_262_23" x1="20.0585" y1="0.818233" x2="-2.73746" y2="2.68576" gradientUnits="userSpaceOnUse">
<stop stop-color="#BD00FF"/>
<stop offset="1" stop-color="#7000FF"/>
</linearGradient>
</defs>
</svg>
