<svg width="32" height="32" viewBox="0 0 32 32" fill="none" xmlns="http://www.w3.org/2000/svg">
<path d="M23.5 1H8.5C4.35786 1 1 4.35786 1 8.5V23.5C1 27.6421 4.35786 31 8.5 31H23.5C27.6421 31 31 27.6421 31 23.5V8.5C31 4.35786 27.6421 1 23.5 1Z" stroke="white" stroke-width="2" stroke-linecap="round" stroke-linejoin="round"/>
<path d="M22 15.055C22.1852 16.3033 21.9719 17.5783 21.3907 18.6985C20.8094 19.8187 19.8898 20.7271 18.7625 21.2945C17.6352 21.8619 16.3577 22.0594 15.1117 21.8589C13.8657 21.6584 12.7147 21.0701 11.8223 20.1777C10.9299 19.2853 10.3416 18.1343 10.1412 16.8883C9.94065 15.6423 10.1381 14.3648 10.7055 13.2375C11.2729 12.1102 12.1813 11.1906 13.3015 10.6093C14.4217 10.0281 15.6967 9.81485 16.945 9.99996C18.2184 10.1888 19.3973 10.7822 20.3076 11.6924C21.2179 12.6027 21.8112 13.7816 22 15.055Z" stroke="white" stroke-width="2" stroke-linecap="round" stroke-linejoin="round"/>
<path d="M26.4838 7.22002C26.5301 6.90793 26.4767 6.58919 26.3314 6.30915C26.1861 6.0291 25.9562 5.802 25.6744 5.66015C25.3926 5.5183 25.0732 5.46893 24.7617 5.51905C24.4502 5.56918 24.1624 5.71625 23.9393 5.93934C23.7162 6.16244 23.5692 6.4502 23.5191 6.7617C23.4689 7.07319 23.5183 7.39256 23.6601 7.67438C23.802 7.9562 24.0291 8.18612 24.3091 8.33143C24.5892 8.47675 24.9079 8.53005 25.22 8.48377C25.5384 8.43657 25.8331 8.28823 26.0607 8.06066C26.2882 7.83309 26.4366 7.53837 26.4838 7.22002Z" fill="white" stroke="white" stroke-width="1.5" stroke-linecap="round" stroke-linejoin="round"/>
</svg>
