<svg width="30" height="26" viewBox="0 0 30 26" fill="none" xmlns="http://www.w3.org/2000/svg">
<path d="M27.4424 0.512193C27.4424 0.512193 30.2176 -0.569905 29.9863 2.05815C29.9092 3.14031 29.2154 6.9278 28.6758 11.0245L26.8256 23.16C26.8256 23.16 26.6715 24.9378 25.2839 25.247C23.8962 25.5562 21.8149 24.1649 21.4294 23.8556C21.121 23.6238 15.6477 20.1454 13.7204 18.4449C13.1808 17.9812 12.5641 17.0536 13.7975 15.9714L21.892 8.24186C22.817 7.31432 23.7421 5.15001 19.8876 7.77806L9.09511 15.1212C9.09511 15.1212 7.86163 15.8941 5.549 15.1985L0.538161 13.6526C0.538161 13.6526 -1.312 12.4932 1.84868 11.3337C9.55765 7.70072 19.0397 3.99051 27.4424 0.512193Z" fill="url(#paint0_linear_151_54)"/>
<defs>
<linearGradient id="paint0_linear_151_54" x1="31.3777" y1="0.291497" x2="-4.44443" y2="3.22618" gradientUnits="userSpaceOnUse">
<stop stop-color="#BD00FF"/>
<stop offset="1" stop-color="#7000FF"/>
</linearGradient>
</defs>
</svg>
