<svg width="23" height="22" viewBox="0 0 23 22" fill="none" xmlns="http://www.w3.org/2000/svg">
<path d="M17.2084 8.61198C17.0259 7.67678 16.5686 6.81729 15.8948 6.14353C15.221 5.46977 14.3616 5.01239 13.4263 4.82993M21.0383 8.61198C20.8225 6.66899 19.9524 4.85713 18.5709 3.4739C17.1894 2.09068 15.3786 1.2183 13.4359 0.999999M5.79521 1.95748L2.92277 1.95748C2.65611 1.9564 2.39216 2.01102 2.14783 2.11785C1.9035 2.22468 1.68418 2.38136 1.50391 2.57786C1.32364 2.77435 1.18639 3.00633 1.10096 3.25894C1.01553 3.51155 0.983802 3.77921 1.0078 4.04479C1.32795 6.99112 2.33474 9.82128 3.94727 12.3079C5.41733 14.6213 7.37872 16.5827 9.69217 18.0528C12.19 19.6709 15.034 20.6779 17.9935 20.9922C18.2583 21.0162 18.5252 20.9847 18.7771 20.8998C19.0291 20.815 19.2606 20.6786 19.4569 20.4993C19.6533 20.3201 19.8102 20.102 19.9176 19.8588C20.025 19.6156 20.0806 19.3527 20.0808 19.0868L20.0808 16.2144C20.0854 15.7497 19.9209 15.2992 19.6179 14.9469C19.3149 14.5946 18.8941 14.3645 18.434 14.2994C17.5147 14.1782 16.6122 13.9533 15.7435 13.6292C15.4007 13.5004 15.0283 13.4725 14.6702 13.5489C14.3122 13.6252 13.9835 13.8026 13.7232 14.0601L12.5072 15.2761C10.1101 13.913 8.1253 11.9283 6.76227 9.53117L7.97827 8.31516C8.23571 8.05483 8.41312 7.72616 8.48948 7.3681C8.56584 7.01003 8.53796 6.63758 8.40914 6.29488C8.08499 5.42618 7.86014 4.5236 7.7389 3.60435C7.67329 3.13924 7.43901 2.71446 7.08064 2.41082C6.72227 2.10717 6.26479 1.94583 5.79521 1.95748Z" stroke="url(#paint0_linear_6_17)" stroke-width="2" stroke-linecap="round" stroke-linejoin="round"/>
<defs>
<linearGradient id="paint0_linear_6_17" x1="21.0383" y1="0.0815622" x2="19.4077" y2="24.0121" gradientUnits="userSpaceOnUse">
<stop stop-color="white"/>
<stop offset="1" stop-color="#CEB0F4"/>
</linearGradient>
</defs>
</svg>
