<svg width="30" height="25" viewBox="0 0 30 25" fill="none" xmlns="http://www.w3.org/2000/svg">
<path d="M27.4424 0.220689C27.4424 0.220689 30.2176 -0.861409 29.9863 1.76665C29.9092 2.84881 29.2154 6.6363 28.6758 10.733L26.8256 22.8685C26.8256 22.8685 26.6715 24.6463 25.2839 24.9555C23.8962 25.2647 21.8149 23.8734 21.4294 23.5641C21.121 23.3323 15.6477 19.8539 13.7204 18.1534C13.1808 17.6897 12.5641 16.7621 13.7975 15.6799L21.892 7.95036C22.817 7.02282 23.7421 4.8585 19.8876 7.48656L9.09511 14.8297C9.09511 14.8297 7.86163 15.6026 5.549 14.907L0.538161 13.3611C0.538161 13.3611 -1.312 12.2017 1.84868 11.0422C9.55765 7.40922 19.0397 3.699 27.4424 0.220689Z" fill="#BD00FF"/>
</svg>
